<?xml version="1.0" encoding="utf-8"?>
<!-- Generator: Adobe Illustrator 26.0.2, SVG Export Plug-In . SVG Version: 6.00 Build 0)  -->
<svg version="1.1" id="svg2" xmlns="http://www.w3.org/2000/svg" xmlns:xlink="http://www.w3.org/1999/xlink" x="0px" y="0px"
	 viewBox="0 0 767.1 1081.1" style="enable-background:new 0 0 767.1 1081.1;" xml:space="preserve">
<style type="text/css">
	.st0{opacity:0.99;fill:#F2F2F2;enable-background:new    ;}
	.st1{fill:#FFDEA9;}
	.st2{fill:#E8F2AD;}
	.st3{fill:#FFCCCC;}
	.st4{fill:#FFFDC0;}
	.st5{fill:#EBCEF2;}
	.st6{fill:none;stroke:#646464;stroke-width:0.6;stroke-linejoin:round;}
	.st7{fill:none;stroke:#646464;stroke-width:2;stroke-linejoin:round;}
	.st8{fill:#C6ECFF;stroke:#84BCD5;stroke-width:2;stroke-linejoin:round;}
	.st9{font-family:'ArialMT';}
	.st10{font-size:18px;}
	.st11{letter-spacing:-1;}
</style>
<g id="layer3">
	<rect id="rect9231" x="8.8" y="15.7" class="st0" width="743.8" height="1061.5"/>
</g>
<path id="barranquillaMap" class="st1" d="M562.4,244.3l-7.5-6.1l-0.3-4.7L544,221.8l0.3-3.6l-3.9-0.6l-6.4,1.7l-8.4-1.9l-11.4-9.2
	v-3.6l-3.6,1.7L510,209l-5.9,2l-3.5-1.6l-9.4,2.9l0.3-8l0.6-1.9h-9.7l-19.5,5.7l-2.1-0.4l0.9-8.5l6.3-4.4l6,1.9l4.1-4.7h4.1l1-4.4
	l-11.1-11.5l7,0.3l2.9-3.4l4.4-1.6v-4.4l9.2-3.4l3.2,3.4l5.1,8.1l4.4-5.3l-5.4-1.9l1.9-3.7l-1.9-5.6l1.9-1.6l5.7-7.8l5.4-7l-0.3-2.5
	l2.5-4.4l5.6-10.8L534,125l11.1,0.3l4.8,2.8l4.7,2.2l7.9-12.5l3.5-10.1l-12.2,5.1l-7.6,0.6l-7.5,0.7l-7.6-1l-1.7,3.6l0.3,2.2l-6,3.1
	l-6.7-0.3l-0.6-3.4l3.2-5.3L517,112l-1.6-6.3l-4.7,0.9v-2.2l0.6-7.5l2.2-9l1-6l-0.2-1l6.9-4.7l-1.6,7.6l2.5,0.4l0.1,7.4l1.3,4.3
	l6.1,6.7h6.9l6,4.9l3.9-2.2l1.4-5.6l0.8,1.6l2.7-4.2v5.4l-4,5.6l-2.8,1.6l4.9,0.1l11.5-4l3.5,0.3l3.9-7l3-0.4l-7.3-11.1l-7.9-6.1
	L550.7,71l-1.5-7l-3.5-6.1l-3.6,0.8l-2.3,1.3l-3,0.3l-6.6,2.8l-3.2,2.3l-3.1,7.1l-0.8-6.6l3.4-3.2l8.7-3.4l6.1-2.8l5.6-4.1l4.6-0.6
	l0.5,10.1l8.2,17l10.8,10.9l5.8,5.2l6,1l2.6,1l15.8,1l8.9,2.8l6.8,12.3l6,4.2l17.1,24l14.2,28.5l2.2,11l-0.8,7.8l0.5,6.5l-0.8,6.8
	l-0.5,1.3l0.3,6.8l0.1,2.4h-5.4l-8.5,0.4h-9.4l-7.2,4.4l-6.3,5.3l-6.7,3.5l-4,4.4l-2.2,7.5l-19.2,0.4l-2.7-0.4l-16.6,7L562.4,244.3z
	 M532.9,84.2l-4.9-4l-5.4-1.3l1.8-2.2l6.3-4.8l-4.5,4.8l3.1,1.8L532.9,84.2z"/>
<path id="suanMap" class="st2" d="M517.3,933l-8.1-4.3l-4.5-2.5l-0.6-6.3l-4.4-1.5l-1.8-2.6l-5.1,5.7l-5.3-0.1l-4.8-3.3l-6.5,0.8
	l-4.4,4.4L468,923l-4.5-0.3l-2.3,2.5l2.4,4.5l-2.2,3.3l-0.9,6.5l-6.9,7.3l-2.3,6.1l-11.7,6.1l-3.2,5.1l1.6,5l-5.5,2.9l-1.6,2.8
	l4.3,23.7l2.1,2.8l30.5,41.4l6.9-10.8l7.5-27.3l5.7-22.4l10.4-12l2.9-7l15.9-22.1l2.9-8.4L517.3,933z"/>
<path id="palmarDeVarelaMap" class="st3" d="M664.4,561.8l-3-0.1l-5.9-2.5l-5.7-1.1l-5.2,1.9l-1.8,3.5l-4.9-2.1l-2.5-1.3l-2,1.2
	l-5.2-2.3l-3.8-5l-2.5,2.3l-3.3-1l-3.3-1.3l-7.3-3.4l-5.5,3.3l-8.1,1.2l-6.7-3l-3.1-1.2l-2.3-3.1l0.1-2.6l-2.6,0.6l-0.7-5.6
	l-3.5-1.5l-2.2,3.8l-3-4.5l-5.6-2.6l-4.4,2.2l-2.2,0.7v-4.1c0,0,0.8-7,0.4-7.5l-3.7-5.1l2.3-2l0.4-3.6l2.2-3.7l2.7,1.7V509h4.2
	l3.2-2.5l4.2-6.2l2.3,2.5h5.8l0.9,3.6h1.5l1-6.4l6-3l10.1-0.5l5.2-12.3l-0.1-4.8l4.8-1.6l0.1-4.8l2.7-0.5l-0.4-7.9l1.5-1.5l5.4,2.4
	l2.9-2.2l4.7,1.1l1.2-2.9l3.7-0.4l11.5-5l7-7.4l5.4,0.1l4.5-3.1l2.6-1.2l6.5,0.1l16.5,4.8l0.5,5.2l2.1,18.5l3.7,18.2l2.1,10.6v17.9
	l-5.7,20.3l-5,6.5l-6,3.1l-7.5,3.9l-6.8,7L664.4,561.8z"/>
<path id="repelonMap" class="st3" d="M84.1,672.1l3.8-3.8l3.4,0.7l-0.5-3.9l2.3-1.5v-3.1l2.6-2.4L97,655l2,2l-0.7,4.5l-1,3.2
	l1.4,2.1l4.7,3.5l2.1,1.3l3.3-2.7l2-1.8l1.8,3.4l1.7,2c0,0,1.8,4.9,2.4,5.8s2,3.1,2,3.1l-0.1,5l-3.9,5.7l-4.3,6.6l-0.1,5.9l2.1,2.4
	l2.7-0.6l4,2l3.4,2.4l3.8,0.1l3.6-2.1l2.6-3.1l3-4.5l4.8-4.8l-1-4.8l-5.3-4.3l-1.3-2.4l0.3-9.8l-2.8-1v-2l2-2l5.1-1.7l7.3-7.6l5-3.1
	l7.8-2.4l3-3.4l2.9-6.4l3.6-2.4l5.6,0.4l8,3.4l6,3.5l2.3-0.6l0.7-5.2l2.7-6.2l2.8-0.3l3.7,4.1l3.1,6h2.4l-0.3-5.7l1.7-8.6l5.7-5.7
	l1.7-2.2l-1.4-3.4l-0.6-2.4l4.3-1.3l7.1,0.8l7,6l4.4,3.6l4.3,0.8l7.6,0.3l4.7,2.4l9.8-20.7l5.8-0.1l27.9,16.5l13,12.9l16.2,27
	l8.3,26.9l2,19.9v1.8l-1.9,17.9l0.1,5.9l-0.1,16.7l-0.4,2.4l-9,1.5l-6.7,2.4l-10.7,11.8l0.1,5.2l-0.3,3.5l-3.3,13.3l-4.4,15.5
	l-1.7,9.5l-7.1,17.7L284,846l-8.7,0.4l-4.5,6.7l-7.5-3.5l-13.2,1l-21.6,3.9L202,865.7l-4.7-5.2l-10.7-19.7l-6.8-5.1l-2.9-6.5
	l-4.2-5.2l0.5-9.3l-2.3-2.3l-7-2.6l-2.3-3.6l-5-2.9l-4.2,0.5l-2.6-2.1l16.1-10.1l0.3-3.6l-5.2-8l-5.7-4.4l-10.9-0.8l-7.5-3.4
	l-12-1.6l-5.4-3.2l-11.7-2.8l-6.8,2.6l-1.8,2.6h-2.1l-4.2-3.3l-6.2,1.5l-7.8,0.3l-8.8,0.8l-4.4,2.6l-4.7-1.8l-5.5-5.2l-1.8-4.9
	l2.9-3.6l13.8-8l1.3-8.3l5.5-10.9l-1.3-12.2l1.3-5.2l7.8-7l2.8-7v-5.2l1.3-3.4l4.4-1.8l0.8-2.3l-1.8-6.7l-6.2-1.6l-1.8,1.6
	L84.1,672.1z"/>
<path id="luruacoMap" class="st2" d="M295.3,616.5v-11.2l2.5-10.7l-3.9-6.1l-6.6-21.3l-0.2-9.9l5.4-7l3.9,1.7l-0.2-7.5l-2.7-7.5
	l-4.7-2.2L287,529l0.7-8.2l-1.7-1.5l-29.3-0.2l-11.1-1.2l-2.2,0.5l-4.4-5.1l-3.4-3.9l-4.2-1.7l-4.7,3.9L220,512l-2.2,0.7l-3.9-2.7
	l-7.4,1.9l-4.4-3.9l1.5,7.3l-2.9,4.4l-3.4,5.8l-1.7,2.7l-3.4-4.4l-3.7-6.1h-3.7l-2.2-1l-4.9,2.4l-5.9,1l-4.7-5.3l-0.7,4.1l-3,1h-5.2
	l-10.6-0.2l-6.2,0.2l-13.4-4.4l-3.4,1.2l-2.6,6l-2,1.5l-1,5.1l-4.3,2.2l-3.9-4.4L107,521l-6.7-11.6l-5.6-7.3l-2-1.2h-8.1l-10,1
	l-3.5-1.2l-0.5-4.6l-2-4.9l0.5-5.1l-3.2-3.6l-0.5-4.1l-4.2-3.1l-2.5,4.9l-6.5,12.4l2.1,14l-20.3,8.8l6,17.6l-1.8,10.6l19,9.6
	l25.2,18.4l3.9,8.5l8,11.4l-2.6,16.3l-6,16.9l-7,12.7L78,656.8l1,7.5l5.1,7.9l3.7-3.9l3.4,0.7l-0.5-3.9l2.3-1.5v-3.1l2.6-2.4L97,655
	l2,2l-0.7,4.5l-1,3.2l1.4,2.1l4.7,3.5l2.1,1.3l3.3-2.7l2-1.8l1.8,3.4l1.7,2c0,0,1.8,4.9,2.4,5.8s2,3.1,2,3.1l-0.1,5l-3.9,5.7
	l-4.3,6.6l-0.1,5.9l2.1,2.4l2.7-0.6l4,2l3.4,2.4l3.8,0.1l3.6-2.1l2.6-3.1l3-4.5l4.8-4.8l-1-4.8l-5.3-4.3l-1.3-2.4l0.3-9.8l-2.8-1v-2
	l2-2l5.1-1.7l7.3-7.6l5-3.1l7.8-2.4l3-3.4l2.9-6.4l3.6-2.4l5.6,0.4l8,3.4l6,3.5l2.3-0.6l0.7-5.2l2.7-6.2l2.8-0.3l3.8,4.1l3.1,6h2.4
	l-0.3-5.7l1.7-8.6l5.7-5.7l1.7-2.2l-1.4-3.4l-0.6-2.4l4.3-1.3l7.1,0.8l7,6l4.4,3.6l4.3,0.8l7.6,0.3l4.7,2.4l9.8-20.7l5.8-0.1
	l28,16.6L295.3,616.5z"/>
<path id="piojoMap" class="st1" d="M286,519.3l-29.3-0.2l-11.1-1.2l-2.2,0.5l-4.4-5.1l-3.4-3.9l-4.2-1.7l-4.7,3.9L220,512l-2.2,0.7
	l-3.9-2.7l-7.4,1.9l-4.4-3.9l1.5,7.3l-2.9,4.4l-3.4,5.8l-1.7,2.7l-3.4-4.4l-3.7-6.1h-3.7l-2.2-1l-4.9,2.4l-5.9,1l-4.7-5.3l-0.7,4.1
	l-3,1h-5.2l-10.6-0.2l-6.2,0.2l-13.4-4.4l-3.4,1.2l-2.6,6l-2,1.5l-1,5.1l-4.3,2.2l-3.9-4.4L107,521l-6.7-11.6l-5.6-7.3l-2-1.2h-8.1
	l-10,1l-3.5-1.2l-0.5-4.6l-2-4.9l0.5-5.1l-3.2-3.6l-0.5-4.1l-4.3-3.2l17.6-28.2l9.6-11.1l3.6-9l6-6.5l0.8-3.9l-2.4-2.6l-8.1-3.1
	l-2.4-3.4l4.7-5.2l4.2-2.5l2-3.8l1-3.2l1-3.2l6.1-3.5l0.2-7l2-0.1l3.4-3.3l3.7,0.6l2.6-3.3l4.5,0.1l0.1,3l1.2,3.3h3.3l3.3-1.4
	l1.9-4.1l2.8,2.1l20.7,2.1l6.4-1.8l7.6-0.8l3.4,1.2l1.1,2.8l3,0.1l3-4l4.7-3.5l6.8-0.4l7.7,2.2l3.3,0.6l3.7,0.7l4.7-2.6l2.8-0.4
	l0.5,5.5l1.4,5l0.5,2.9l4.4,10.3v3.1l5.1,0.1l7.1,4.7l4.4-0.6l1-1.5l0.1-2.5l2.1-2.2l2.6-1.8l12.2,8.4l14.1,12.6l1.5,2.1l1.3,1.2
	l2.4,0.8l5.9-1.9l5.9-0.1l1.5,4l-0.6,2.6l3.3-0.5l3.7-3.1v-1.9l2.7-2l2.4,1.6l4.3,1l5-2.6l2.7,0.5l-3.1,4l0.2,4.1l-3.3,6.7l1.2,1.4
	l4.6-0.6l6.4,2.5h4.3l2.7,2l0.1,6.3l3.4,3.7l3,5.8l-4.6,16.9l-8.2,2.8l-4.5,5.1l-1,4.8l-4.1,1.6l1.4,3.1l-3.7,4.9l-0.6,2.2l-3.7,0.2
	v4.3l-3-0.1l-3.2,5.6l-6.8,2.8l4.9,3.4l4.3,8.8l-9.9,0.5L286,519.3z"/>
<path id="juanDeAcostaMap" class="st4" d="M314.4,417.1l2-3.1l12.5,4.2l4.7,5.3l5-3.3l-1.7-2.5l0.6-9.8l2.5,0.3l1.4,3.4h6.7l1.1-1.7
	l13.4,1.4l1.4-3.9l-1.4-2.2l3.5-5.5l1.7-4.7h2.9l4.6,3.8l3.5,3.5l3.9-3.5l1.1-6.9l-6-9l-2.1-2.1l-6.7-5.2l3.5-3.5V369l-4.4-4.2
	l-1.2-9.8l5-3.1l-3.1-5.3h-10l-3.6-3.6v-2.2l4.2-1.1l-2.6-3.1l-2.2-0.5l-1.7-5.6l-2-2.5l0.8-4.5l2.5-0.6l-0.8-2.8l-6.4-2.8l-2.5-2
	h-8.6l-1.1,2.3l-2.5-2l0.4-5.6l-4.2-1.1l-3.2-0.3l-2.1,1.7l-2.5-3.5l-5.6-2.8l-2.5-5.5l0.4-3.1l-4.3-2l-3.5-4.3l-4.6,2.8l-1.8-4.2
	l-0.7-3.1h-4.2l-5.3,6.9l-10-9.4h-3.2l-7.4-0.6l-1.6,1.9l-1.9,0.8l-0.1,6.2l-2.9,2.9l-7.4,2.6l-11.1,2.2l1.2,1.9l-2.2,5.3l-8,2.5
	h-5.8l-5.7,1.9h-5.3l-2.6,2.1l-3.6-0.5l-4-1.3l1.6,3.5l-1,3.5l-5.4,3.2l-8.2,0.5l-2.7,4l-3.4,9.5l-3.5,3.5l0.9,5l-5.1,2.3l-2.9,3.4
	l-5.1,0.4l-6.5,2.1l-15.2-1.9l-6.8,4.5l-5.8,5.4l-9.3,6l-5-1.2l-12,1.3l-0.5,4.4l-5.7,6.3v3l2-0.1l3.4-3.3l3.7,0.6l2.6-3.3l4.5,0.1
	l0.1,3l1.2,3.3h3.3l3.3-1.4l1.9-4.1l2.8,2.1l20.7,2.1l6.4-1.8l7.6-0.8l3.4,1.2l1.1,2.8l3,0.1l3-4l4.7-3.5l6.8-0.4l7.7,2.2l3.3,0.6
	l3.7,0.7l4.7-2.6l2.8-0.4l0.5,5.5l1.4,5l0.5,2.9l4.4,10.3v3.1l5.1,0.1l7.1,4.7l4.4-0.6l1-1.5l0.1-2.5l2.1-2.2l2.6-1.8l12.2,8.4
	l14.1,12.6l1.5,2.1l1.3,1.2l2.4,0.8l5.9-1.9l5.9-0.1l1.5,4l-0.6,2.6l3.3-0.5l3.7-3.1v-1.9l2.7-2l2.4,1.6l4.3,1l5-2.6l2.6,0.5
	L314.4,417.1z"/>
<path id="tubaraMap" class="st5" d="M456.4,203.1h-5.8l-3.8-1.1l4.6-8.3l-1.5-4.5l1.5-3l8-3l1.5-4.3l-7.4-6l-5.9,2.8l-2.4-3.4
	l-4.2,1.1v3h-4.2l-2.7,2.3l-3.8-4.2l-5.4,6l-1.9-4.1l-4.2-1.5l-3-2.6l-4.2-4.1h-5.8l-2.8,1.7l-8.3,0.6l-5.4,4.1l-1.9-2.8l-0.4-3.4
	l-3.2-4.8v0.8l-10.8-0.9l-7.4,1.6l-6.3,0.6l-3.4,5.2l-7.2,2.3l-7.6,7.7l-11.8,11.8l-10.9,6l-6.5,2.2l-5.5,10.7l2.3,3.4l2.8-4.7
	l4.9,0.7l7.3-9l6-1l5.5,6l-6.3,22l-3.8,2.2l-4,7.6l1,6l2.2,0.4l1.2,7l-3.5,5.9l-7.6,5.7l-3.4,6.1l-7.6,4.5h-6.6l-4.8,3.9l-5.3,1.3
	l-2.7,2.7l-5.4,0.1l10,9.4l5.3-6.9h4.2l0.7,3.1l1.8,4.2l4.6-2.8l3.5,4.3l4.3,2l-0.4,3.1l2.5,5.5l5.6,2.8l2.5,3.5l2.1-1.7l3.2,0.3
	l4.2,1.1l-0.4,5.6l2.5,2l1.1-2.2h8.6l2.5,2l6.4,2.8l0.8,2.8l-2.5,0.6l-0.8,4.5l2,2.5l1.7,5.6l2.2,0.5l2.5,3.1l-4.2,1.1v2.2l3.6,3.6
	h10l3.1,5.3l-5,3.1l1.2,9.8l3.3-3.3l4.1-1.8v-1.8l3.8,2.6l0.8,4.5l3.8-2.3l5,1.9l4.6-2.3l7.3-5.7h3.8l-1.9-8.7l1.1-6.4l5-8.7
	l11.5-5.3l3.8-5.3l3.4-6.6l1.4-2.9l4.5-3.3v-5.3l5.9-3.9l3.4,0.3l1.4-0.3l-2.5-2.8l0.6-4.5l4.2-1.4l2.8-10l-4.2-3.6l-1.4-5.3l5-2.8
	l3.6-11.7l-1.7-16.2L452,219l4.7-2.8l6.4-8.3l-2.2-0.2L456.4,203.1z"/>
<path id="usiacuriMap" class="st3" d="M394,393.2l3.8,0.4l0.7,3.1l4.9,3.1l4.2,0.7l8-0.3l1.4,3.1l4.9,3.8l4.5-0.3l5.9,5.8l2.4,3.8
	l11.1,5.5l-2.1,1.7l-0.4,3.8v4.1l3.8,3.4l3.1,2.4l0.4,3.4l-2.8,10.3l-5.2,1l-3.1,4.5v4.5l2.1,6.5l-3.1,6.9v3.4l-5.9,3.4l-0.7,6.5
	l3.1-0.7l2.4,2l2.8-1l1.7,2.7l-2.4,3.4l-3.1,5.8v3.1l1.7,4.1l-2.4,3.1h-4.9l-3.8-2.4l-6.3,1.4l-4.9,3.1l-4.5-0.3l-3.1-0.3l-5.5,1.4
	l-2.1,5.5l-1.7,2.7l0.7,3.4l-3.1-2l-3.8-7.9l-5.2-4.1l-2.4-5.8l-4.2-4.4h-3.1l-1.4,4.8l-3.1-2.1l-3.5-6.8l-7.6-5.8l-10.1,4.5
	l-7.6,1.4l-7-1.4l-4.5-4.5l-7-2.4l-4.5,4.4l-5.2,4.5l-7,0.7l-4.9,0.7l-2.9-2.3l3.7-0.4l0.6-2.2l3.7-4.9L308,485l4.1-1.6l1-4.8
	l4.5-5.1l8.2-2.8l4.6-16.9l-3-5.8l-3.4-3.7l-0.1-6.3l-2.7-2h-4.3l-6.4-2.5l-4.6,0.6l-1.2-1.3l3.2-6.6l-0.2-4.1l3-4l3.8-0.9l2-3.1
	l12.5,4.2l4.7,5.3l5-3.3l-1.6-2.5l0.6-9.8l2.5,0.3l1.4,3.4h6.7l1.1-1.7l13.4,1.4l1.4-3.9l-1.4-2.2l3.5-5.5l1.7-4.7h2.9l4.6,3.8
	l3.5,3.5l3.9-3.5l1-7L394,393.2z"/>
<path id="sabanalargaMap" class="st4" d="M532.9,662.1l0.2-3.7l4.6-2.8l3.5-3.9l2.1-10.2l1.4-1.6l0.7-5.1l-1.7-3.2l0.5-4.4l5.3-1.6
	l2.3-4.4l2.5-3.5l0.2-13.9l-3.4,0.2l-4.8-4.5l-3.3-7.5l-6-2.1l-3.6-6.6V580l1.2-14.6l0.9-3.9l-2.4-17.9l0.3-3.9l-4.2-13.1
	l-15.1-45.6l0.9-3l-1.8-2.4v-3.3h-1.8l-1.5,3.6l-9.7,1.2l-2.1,5.7l-1.8,0.9l-4.2-1.2l-10-1.8l-5.1,3.3l-2.4,6.9l-6.1,6.6l-6.7,0.3
	l-5.5,3.6l-0.6-3.6l4.5-6.9l-0.3-3.9l-3.9,2.4h-4.5l1.8,5.4l-4.8-3l-5.1-5.7l-3,1.6l1.7,2.7l-2.4,3.4l-3.1,5.8v3.1l1.7,4.1l-2.4,3.1
	h-4.9l-3.8-2.4l-6.3,1.4l-4.9,3.1l-4.5-0.3l-3.1-0.3l-5.5,1.4l-2.1,5.5l-1.7,2.7l0.7,3.4l-3.1-2l-3.8-7.9l-5.2-4.1l-2.4-5.8
	l-4.2-4.4h-3.1l-1.4,4.8l-3.1-2.1l-3.5-6.8l-7.6-5.8l-10.1,4.5l-7.6,1.4l-7-1.4l-4.5-4.5l-7-2.4l-4.5,4.4l-5.2,4.5l-7,0.7l-4.9,0.7
	l-2.9-2.3v-0.2v4.3l-3-0.1l-3.2,5.6l-6.8,2.8l4.9,3.4l4.3,8.8l-9.9,0.5L287,529l1.7,5.8l4.7,2.2l2.7,7.5l0.2,7.5l-3.9-1.7l-5.4,7
	l0.2,9.9l6.6,21.3l3.9,6.1l-2.5,10.7v11.2l-1.4,12.3l13,12.9l16.2,27l8.2,26.9l2,19.9v1.6l3.1-1.1l13,1.5l6.4,3.3l3.3-1.5l5.5-4.5
	l6,5.4h4.2l4.2,1.5l11.2,0.9l4.2-6l6-4.5l1.5-2.7l1.5-3.9l5.8-3.9l3.3-0.6l-3-4.2l-1.5-5.4l5.1-0.3l11.3,3.7l11.8,1.5l9.4,1.5
	l7.6,1.8l3.6-7.2l2.7-5.7l6.1-2.7l6.4,1.2l5.7-3.7l13.3,7.4l6.1,3.5l1.8-3l-0.3-4.2l0.6-6.3l-3.6-3.9l2.7-0.6h3l4.2-2.7l11.8,0.6
	l3.6-1.5l-3-5.1l1.8-3.3l4.8-3l6.7,7.5l4.6,0.4L532.9,662.1z"/>
<path id="manatiMap" class="st5" d="M331.6,735.3l0.1,5.9l-0.1,16.7l-0.4,2.4l-9,1.5l-6.7,2.4l-10.7,11.8l0.1,5.2l-0.3,3.5
	l-3.3,13.3l-4.4,15.5l-1.7,9.5l-7.1,17.7L284,846l-8.7,0.4l-4.4,6.7l8.6,7.9l13,18.1l3.6,2.1l3.6,8l7.3,4.4l6.8,1.5l5.5,3.1l2.3,0.5
	l4.9-7.2l8.9,3l4.4,0.4l-1-3.3l-4.4-2.3l5.1-4.3h6.3l9.4,2.5l1.5-4.6l4.8-2.9l0.6-2.9l-1.9-6.1l2.8-2.3h5.1l2-4.2l2.9-0.9l5.4,3
	l8.2,3l7.8-1.9l1,2l-0.6,5.6l1.8,3l3.1,0.7l6.9,0.7l4.1-1.2h1.8l5.1-9.1l-0.6-3.3l1.9-2.3l-0.1-2.7l4.1-2.7l3.8-1l1.8-5.2l3.4-2.7
	l4.1-2.2l3.8,0.3l1.6,3.3l2.2,2.9l2.2,1.2l2.9,0.3l1.6,1.9l-0.1,3.3l1.8,1.9l1.6-0.6l1-1.2l0.4-3l-1.4-2l-0.3-2.3l1.8-2.2l3.1-2
	l3.4-2.5v-2.3l-0.4-3.2l-4-0.4l1.3-5.3l-0.6-6.5l-5.2-10.8l-5.6,0.5l-4-7.9l-2-3.2l3.4-2.6l1.8-20.8l-0.8-5.3l1.8-1.6l0.8,3.2
	l8.7,2.8l2.4,2.2l2.2-1.6l-0.6-10.3l2.8-2l1.4-2.4l-3.8-3.2l0.6-16.6l-3.2-3.8l5.5-3.4l0.4-11.1l1.8-3l-0.4-8.1l3-3.2v-3l-9.9-1
	l-2.2-6.5l2.4-1l0.8-2.8l-6.5-2.6l-7.4-1.7l-9.4-1.5l-11.7-1.7l-11.2-3.6l-5.1,0.3l1.5,5.4l3,4.2l-3.3,0.6l-5.8,3.9l-1.5,3.9
	l-1.5,2.7l-6,4.5l-4.2,6l-11.2-0.9l-4.2-1.5h-4.2l-6.1-5.4l-5.5,4.5l-3.3,1.5l-6.4-3.3l-13-1.5l-3.1,1.2L331.6,735.3z"/>
<path id="santaLuciaMap" class="st4" d="M406.4,883.7l2.9,3.2l17,2.9l5.1-1.5l4.2,3.2l-0.8,1.9l4.3,9l-0.1,5.9l2.9,1.1l7.6-2.3
	l7.6,1.9l-3.2,3l-3.2,0.2v4.2l-3,3.8l-5.1-1.3l-6.3,5.3l0.2,2.5l9.1,1.7l0.2,1.9l11.2,4l2.1-1.9l2.4,0.6l-0.9,6.5l-6.8,7.3l-2.3,6.1
	l-11.7,6.1l-3.2,5.1l1.6,5.1l-5.5,2.9L431,975l4.4,23.8l-29.2-36.6l-4.7-4.7l-7.4-8.1l-4.7-7.3l-4.2-10.6l-12.5-6.5l-7-11.2
	l-5.7-4.4l-25-4.2l-10.1-5.7l-3.5-0.8l5-7.2l8.9,3l4.4,0.4l-1-3.3l-4.4-2.3l5.1-4.3h6.3l9.4,2.5l1.5-4.6l4.8-2.9l0.6-2.9l-1.9-6.1
	l2.8-2.3h5.1l2-4.2l2.9-0.9l5.4,3l8.2,3l7.8-1.9l1,2l-0.6,5.6l1.8,3l3.1,0.7l6.8,0.8L406.4,883.7z"/>
<path id="campoDeLaCruzMap" class="st1" d="M520.4,933l-3.1-0.1l-12.8-6.9l-0.6-6.3l-4.4-1.4l-1.8-2.7l-5.2,5.7l-5.3-0.1l-4.6-3.3
	l-6.6,0.7l-4.2,4.4l-8.3-0.6l-2.2,2.7l2.4,4.4l-2.2,3.4l-2.4-0.7l-2.1,1.9l-11.2-4l-0.2-1.9l-9.1-1.7l-0.2-2.5l6.3-5.3l5.1,1.3
	l3-3.8v-4.2l3.2-0.2l3.2-3l-7.6-1.9l-7.6,2.3l-2.9-1.1l0.1-5.9l-4.3-9l0.8-1.9l-4.2-3.2l-5.1,1.5l-17-2.9l-2.8-3.3l0.2-3.6l4.2-1.2
	h1.8l5.1-9.1l-0.6-3.3l1.9-2.3l-0.1-2.7l4.1-2.7l3.8-1l1.8-5.2l3.4-2.7l4.1-2.2l3.8,0.3l1.6,3.3l2.2,2.9l2.2,1.2l2.9,0.3l1.6,1.9
	l-0.1,3.3l1.8,1.9l1.6-0.6l1-1.2l0.4-3l-1.4-2.2l-0.3-2.3l1.8-2.2l3.1-2l3.3-2.5l5-0.1l10.4-7.2l9.1,8l3.2,0.5l3.8-6l-0.7-2
	l11.5-1.2l4.5-5.4l4.7,0.8l7.8-3.7l4.3-6.5l7.6,4.4l3.3,3l3.3-6l-1.1-7.1l1.7-11l4.1,0.3l0.5-5.5l9.6-16.4l3.1-1.8l3.3-2.3l5.3-4.4
	l6.5-17.6l8.3-11.4l2.8,0.7l3,3.5l10.4,0.9l1.3,6.5l-1.8,5.7l-7,6.5l-1.6,10.4l-3.2,17.9l-0.2,11.2l0.3,5.2l-3.4,7.8l-6.8,10.7
	l-4.5,7.7l-4.2,5.2l-5.7,3.6l-11.5,5.2l-12,7.3l-8.1,12L524,885l1.6,33l-4.7,13L520.4,933z"/>
<path id="candelariaMap" class="st2" d="M538.8,668.1l10.2,5.7l4,7l5.3,4.8l0.9,10l-4.5,2.1l3.5,11.3l5.7,9.6l14.1,13.9l8.4,1.7
	l-4,10.4l-2,3.5l-8.2,11.5l-6.5,17.6l-5.3,4.5l-3.3,2.3l-3.1,1.7l-9.6,16.4l-0.5,5.5l-4.1-0.3l-1.7,11l1.1,7.1l-3.3,6l-3.3-3
	l-7.6-4.4l-4.3,6.4l-7.8,3.7l-4.7-0.8l-4.4,5.4l-11.5,1.3l0.7,2l-3.8,6l-3.2-0.5l-9.1-8l-10.4,7.2l-5,0.1l0.1-2.3l-0.4-3.2l-4-0.4
	l1.3-5.3l-0.6-6.5l-5.2-10.8l-5.6,0.5l-4-7.9l-2-3.2l3.4-2.6l1.8-20.8l-0.8-5.3l1.8-1.6l0.8,3.2l8.7,2.8l2.4,2.2l2.2-1.6l-0.6-10.3
	l2.8-2l1.4-2.4l-3.8-3.2l0.6-16.6l-3.2-3.8l5.5-3.4l0.4-11.1l1.8-3l-0.4-8.1l3-3.2v-3l-9.9-1l-2.2-6.5l2.4-1l0.8-2.8l-6.5-2.5
	l3.7-7.1l2.7-5.7l6.1-2.7l6.4,1.2l5.7-3.7l13.3,7.4l6.1,3.5l1.8-3l-0.3-4.2l0.6-6.3l-3.6-3.9l2.7-0.6h3l4.2-2.7l11.8,0.6l3.6-1.5
	l-3-5.1l1.8-3.3l4.8-3l6.7,7.5l4.4,0.3L538.8,668.1z"/>
<path id="ponederaMap" class="st5" d="M596.8,753.2l3.7-11.8l5.2-3.6l6.5-1.3l6.5-7.3l6.1-7.8l6-10.6l13-2l7-6.8l18.7-7.3l5.3-13.8
	l0.5-39.6l14.4-20.9l-0.7-7l0.8-7.5l-5.2-16.4l-5-3.9L667,574.2l-3.4-8.3l0.8-4.1l-3.1-0.1l-5.6-2.5l-5.8-1.2l-5.3,2.2l-1.6,3.7
	l-7.5-3.7l-1.9,1.4l-5-2.5l-3.9-4.8l-2.8,2.3l-13.4-5.8l-5.8,3.2l-8.1,1.1l-9.8-4.1l-2.3-3.4l0.2-2.5l-2.7,0.8l-0.8-5.5l-3.4-1.5
	l-2.2,4l-3-4.6l-5.5-2.6l-3.1,1.5l-3.8,1.5l0.2-3.7l0.5-8l-3.9-4.9l2.3-2.2l-0.9-3.8l-2.8-2l0.6-4.1l-3.1-1.7l-1.4,3.2l0.3-5.2
	l-1.6-7.7H545l0.9-3.4l-3.1-2.2l-2.8,0.9l-3.8,1.2l-2.3-6.6h-5l-1.6-2.3l-4.2,2.1l-3.1-1.9l0.5-4l-3-6.3l-1.1,2.5l-1.5-0.5l-0.9,3
	l15.2,45.6l4.2,13.1l-0.3,3.9l2.4,17.9l-0.9,3.9l-1.2,14.6v3.3l3.6,6.6l6,2.1l3.3,7.5l4.8,4.5l3.4-0.2l-0.2,13.9l-2.5,3.5l-2.3,4.4
	l-5.3,1.6l-0.5,4.4l1.6,3.2l-0.7,5.1l-1.4,1.6l-2,10.2l-3.5,3.9l-4.6,2.8l-0.2,3.7l3.2,5.3l2.7,0.7l10.2,5.7l4,7l5.3,4.8l0.9,10
	l-4.4,2.1l3.5,11.3l5.7,9.6l14.1,13.9l8.4,1.7l-4,10.4l-2,3.5l3,0.8l3,3.5L596.8,753.2z"/>
<path id="galapaMap" class="st3" d="M558.1,276.6l5.2-6.6l5.5-14l-0.3-7.7l-1.4-3.4l-4.6-0.5l-7.5-6.1l-0.3-4.7L544,221.8l0.3-3.6
	l-3.9-0.6l-6.4,1.7l-8.4-1.9l-11.4-9.2v-3.6l-3.6,1.7L510,209l-5.9,2l-3.5-1.6l-9.4,2.9l0.3-8l0.6-1.9h-9.7l-19.5,5.7l-2-0.4
	l2.1,0.4l-6.4,8.2l-4.7,2.8l-1.7,23.1l1.7,16.2l-3.6,11.7l-5,2.8l1.4,5.3l4.2,3.6l-2.8,10l-4.2,1.4l-0.6,4.5l2.5,2.8l-1.4,0.3
	l-3.4-0.3l-5.9,3.9v5.3l-4.5,3.3l-1.2,2.2l1.7,0.1l8.1,0.6l3.6,4.5l3.9,2.6l3.6-3.2l4.2-1l9.1,4.1l6.2,3.2l4.9-1.3l5.8-2.9l2.6,3.2
	l-0.6,4.5l2.3,3.5l2.6-2.5l2.9-4.1l-0.6-4.5l2.9-1.6l3.2,3.5l3.6,1.6l8.8-3.8l10.7,0.1l1-7.3l3.1-4.6l3.7,1l20-8.8l3.3-0.4l8.1-3.3
	l-0.6-2.9l-5.4-0.8l-4-6.9l3.3-0.8l4.3-4.5L558.1,276.6z"/>
<path id="puertoColombiaMap" class="st4" d="M456.4,203.1h-5.8l-3.8-1.1l4.6-8.3l-1.5-4.5l1.5-3l8-3l1.5-4.3l-7.4-6l-5.9,2.8
	l-2.4-3.4l-4.2,1.1v3h-4.2l-2.7,2.3l-3.8-4.2l-5.4,6l-1.9-4.1l-4.2-1.5l-3-2.6l-4.2-4.1h-5.8l-2.8,1.7l-8.3,0.6l-5.4,4.1l-1.9-2.8
	l-0.4-3.4l-2.7-4.1l-0.4-0.7l12.4-3l5.7-4.8l9.7-2.1l10.1-13.3l1.6-5.1l17.5-13.2l8-5.1l7.5-8.5l2.9-8.7l-0.6-4.7l1.4-2.3l4.7,0.3
	l4-0.4l5.4-2.3l3.8,0.9l9.3,0.4l4.7-2.2l1.2-1.9h6.9l14.6-5.6l-1,6l-2.2,9l-0.6,7.5v2.3l4.7-0.9l1.6,6.2l2.5,0.9l-3.2,5.3l0.6,3.4
	l6.6,0.3l6-3.1l-0.4-2.2l1.7-3.6l7.6,1l7.5-0.7l7.6-0.6l12.2-5l-3.5,10.1l-7.9,12.5l-4.7-2.2l-4.8-2.8l-11.1-0.3l-10.1-0.4
	l-5.6,10.7l-2.5,4.4l0.3,2.5l-5.4,7l-5.7,7.8l-1.9,1.6l1.9,5.6l-1.9,3.7l5.4,1.9l-4.4,5.3l-5.1-8.1l-3.2-3.5l-9.2,3.4v4.4l-4.4,1.6
	l-2.9,3.4l-7-0.3l11.1,11.5l-1,4.4h-4.1l-4,4.7l-6-1.9l-6.3,4.4l-0.9,8.6L456.4,203.1z"/>
<path id="baranoaMap" class="st2" d="M506.2,321.6l-8.8,3.8l-3.6-1.6l-3.2-3.5l-2.9,1.6l0.6,4.5l-2.9,4.1l-2.6,2.5l-2.3-3.5l0.6-4.5
	l-2.6-3.2l-5.8,2.9l-4.9,1.3l-6.2-3.2l-9-4.1l-4.2,1l-3.6,3.2l-3.9-2.6l-3.6-4.5l-9.7-0.8l-3.7,7.2l-3.8,5.3l-11.5,5.3l-5,8.7
	l-1.1,6.4l1.9,8.7h-3.9l-7.3,5.7l-4.6,2.3l-5-1.9L380,365l-0.8-4.5l-3.8-2.6v1.8l-4.1,1.8l-3.3,3.3l4.4,4.2v3.1l-3.5,3.5l6.7,5.2
	l2.1,2.1l6,9l10.3,1.4l3.8,0.4l0.7,3.1l4.9,3.1l4.2,0.7l8-0.3l1.4,3.1l4.9,3.8l4.5-0.3l5.9,5.8l2.4,3.8l11.1,5.4l-2.1,1.7l-0.4,3.8
	v4.1l3.8,3.4l3.1,2.4l0.4,3.4l-2.8,10.3l-5.2,1l-3.1,4.5v4.5l2.1,6.5l-3.1,6.9v3.4l-5.9,3.4l-0.7,6.5l3.1-0.7l2.4,2l2.8-1l3-1.6
	l5.1,5.7l4.8,3l-1.8-5.4h4.5l3.9-2.4l0.3,3.9l-4.5,6.9l0.6,3.6l5.5-3.6l6.7-0.3l6.1-6.6l2.4-6.9l5.1-3.3l10,1.8l4.2,1.2l1.8-0.9
	l2.1-5.7l9.7-1.2l1.4-3.5l-1.2-3.7h-6l-2-2.8l-3.6,3.6l-3.7-3.6l-0.4-4.4l-2.8-4.4l-1.6-0.4l0.4-2l0.4-2.8l-3.2-2.4l-2.4-7.1l2-4.8
	l-0.8-4.8l2-4.8l4.4-0.4l5.6,1.2l1.2-7.5l1.6-7.9l4.4-4.4l-1.6-4.8l-4.8-1.6l4.4-3.6l4-4.8l3.6,2.8v-5.5l-3.6-4l-7.2-2.4l4-4.4
	l5.6-2l1.6-2l-3.2-4.8l-4-2.8l-0.8-4l6-3.6l0.4-6.7l5.6-5.5l3.2-5.1l3.6-4l-2-5.1l-4-6.7l0.4-7.2L506.2,321.6z"/>
<path id="soledadMap" class="st2" d="M656.1,217.8l2.4,8.6l7.1,6.3l9.7,3.9l4.5,4.2l12.4,5.2l6.6,3.9l-0.8,7.3l-16.8,13.3l-4.5,6.4
	l1.1,9.4l0.4,5.6l-5-3v-6.2h-1.1l-2,3.3l-8.1-3.3l-1.1-2l-7.9-0.9l-3.3,2.6l-1.8-0.7l0.4-4.2l-6.6-5.1l-2,1.8l-3.7,0.9l-1.7,1.3
	l2.2,2v7.4l-2.8,1.7l-5.2-3l0.4-2.2l-3-0.4l-1.7,5.7l1.5,1.8l-3.9,2l-2.2-3.1h-3l-3.1,2.8l-0.5,4.2l-4.8,0.3l-2.4,1.1l-3.4-4.6
	l1.9-1.9l-2.2-4.4l-4.4-2.8l-3.5,2.5l-2.2,3.7l-2.6-1.5l-1.5,0.7l-2.5,3.5l-8.5,0.6l-6.5-4.8l3.5-1.5l2.9-8.5l2.7-2.1l-0.8-3.1
	l-7.3,0.8l-7.3,6.1l-6.7,2.9l-3-0.6l3.8-5l5.2-6.6l5.5-14l-0.3-7.7l-1.5-3.6l16.5-6.9l2.2,0.6l19.9-0.6l2.2-8.1l4-4.2l6.8-3.3
	l13.2-9.4l23.5-0.6L656.1,217.8z"/>
<path id="malamboMap" class="st4" d="M509.7,362.2l0.4-6.7l5.6-5.5l3.2-5.1l3.6-4l-2-5.1l-4-6.7l0.4-7.3l1-7.2l3.1-4.6l3.7,1l20-8.8
	l3.3-0.4l8.1-3.3l-0.6-2.9l-5.4-0.8l-4-6.9l3.3-0.8l4.3-4.5l0.8-1l3,0.6l6.7-2.9l7.3-6.1l7.3-0.8l0.8,3.1l-2.7,2.1l-2.9,8.5
	l-3.5,1.5l6.5,4.8l8.5-0.6l2.5-3.5l1.5-0.7l2.6,1.5l2.2-3.7l3.5-2.5l4.4,2.8l2.2,4.4l-1.9,1.9l3.4,4.6l2.4-1l4.8-0.3l0.5-4.2
	l3.1-2.8h3l2.2,3.1l3.9-2l-1.5-1.8l1.7-5.7l3,0.4l-0.4,2.2l5.2,3l2.8-1.7v-7.4l-2.2-2l1.7-1.3l3.7-0.9l2-1.8l6.6,5.1l-0.4,4.2
	l1.8,0.7l3.3-2.6l7.9,0.9l1.1,2l8.1,3.3l2-3.3h1.1v6.3l5,3l0.3,1.9l-0.5,7.2l-1.6,4.7l0.5,14.1l-4.7,12.5l0.1,8.8l-4.6,0.3l-4.5,3.4
	l-7.2-0.7l-0.8,4.8l3.8,6l-2.7,4.1l-9.9-3.5l-3,3h-9.8l-4.2,2.2l-9.8,2.2l-15.2,4.4l-10.6,3h-8.3l-13.6-1.9l-11.7,0.4l-16.6-0.4
	h-18.1l-21.9-2.9L509.7,362.2z"/>
<path id="polonuevoMap" class="st1" d="M513.2,472.4v3.2l2,2.5l1.4,0.4l1-2.5l3.1,6.4l-0.4,4.2l3.1,1.9l4.2-2.3l1.5,2.3h5l2.3,6.4
	l3.1-0.8l3.5-1.1l3.1,1.9l4.2-1.5l1.5-11l1.2-7.9l6.1-5.7l1.2-6.4l1.2-12.5l5-14l7.7-12.5l0.4-6l15-6.8l-1.2-3l5.4-1.9l1.2-6.4
	l-3.1-3.8v-7.2l-5-5.7l-0.8-3.8l4.2-4.2l3.1-4.2H584l-12.1-1.9l-12,0.2l-15.6-0.2l-18.8,0.1l-21.9-2.9l0.8,3.9l4,2.8l3.2,4.8l-1.6,2
	l-5.6,2l-4,4.4l7.2,2.4l3.6,4v5.5l-3.6-2.9l-4,4.8l-4.4,3.6l4.8,1.6l1.6,4.8l-4.4,4.4l-1.6,8l-1.2,7.5l-5.6-1.2l-4.4,0.4l-2,4.8
	l0.8,4.8l-2,4.8l2.4,7.1l3.2,2.4l-0.4,2.8l-0.4,2l1.6,0.4l2.8,4.4l0.4,4.4l3.6,3.6l3.6-3.6l2,2.8h6l1.2,3.6L513.2,472.4z"/>
<path id="santoTomasMap" class="st4" d="M545.8,494.8l-0.7,3.3l3,0.3l1.7,6.9l-0.3,5.9l1.7-3.3l2.7,2l-0.3,4l2.7,2l1,3.6l0.3-3.3
	l2.3-3.6l2.7,1.7v-5.3h4l3.3-2.6l4-6.3l0,0l2,2.3l6.4,0.3l0.7,3.6h1.3l1-6.6l6-3l10.1-0.3l5.4-12.2l-0.3-5l5-1.3v-5l2.7-0.7
	l-0.3-7.6l1.3-1.7l5.4,2.3l3-2l4.7,1l1.3-3l3.7-0.3l6-2.6l5.4-2.3l7-7.3h5.7l4-3l2.9-1.2h6.7l9.4,3l7,1.8l-0.2-11.9l4.7-12.1
	l-1.2-10.6h-4.3l-5.8,1.5l-0.3,3.4l-1.6,2l-3.6-2.2l-4.1-5l-16.4-0.3l-12.8-0.1l-8.4-1.6l-7.9-2.3l-3.7-3.9l-7.1,1.2l-4,2.6
	l-14.1,4.6l-4-3.6l-3.7-0.6l-14.5,6.8l-0.4,6l-7.7,12.5l-5,14l-1.2,12.5l-1.2,6.4l-6.1,5.6l-1.2,7.9l-1.5,11L545.8,494.8"/>
<path id="sabanagrandeMap" class="st2" d="M588,407.6l5.4-1.9l1.2-6.4l-3.1-3.8v-7.2l-5-5.7l-0.8-3.8l4.2-4.2l3.1-4.2h1l10.6-3
	l15.1-4.5l9.8-2.2l4.2-2.2h9.8l3-3l9.8,3.4l2.7-4.1l-3.8-6l0.8-4.8l7.2,0.8l4.5-3.4l4.6-0.3v2l6.9,19.3l-0.3,16.1l5.2,18.5l5.7,11.4
	l0.3,6.5l-4.6,0.2l-5,1.1l-0.4,3.8l-1.9,1.5l-3.5-2.2l-3.8-4.5l-15.7-0.4H646l-4.6-0.4l-8.8-1.5l-7.3-2.3l-3.5-3.8l-6.9,1.1
	l-4.6,2.6l-7.7,3l-6.5,2.3l-3.8-4.2l-3.3-0.8L588,407.6z"/>
<g id="layer9">
	<path id="path5239" class="st6" d="M562.4,244.3l-7.5-6.1l-0.3-4.7L544,221.8l0.3-3.6l-3.9-0.6l-6.4,1.7l-8.4-1.9l-11.4-9.2v-3.6
		l-3.6,1.7L510,209l-5.9,2l-3.5-1.6l-9.4,2.9l0.3-8l0.6-1.9h-9.7l-19.5,5.7l-2.1-0.4l0.9-8.5l6.3-4.4l6,1.9l4.1-4.7h4.1l1-4.4
		l-11.1-11.5l7,0.3l2.9-3.4l4.4-1.6v-4.4l9.2-3.4l3.2,3.4l5.1,8.1l4.4-5.3l-5.4-1.9l1.9-3.7l-1.9-5.6l1.9-1.6l5.7-7.8l5.4-7
		l-0.3-2.5l2.5-4.4l5.6-10.8L534,125l11.1,0.3l4.8,2.8l4.7,2.2l7.9-12.5l3.5-10.1l-12.2,5.1l-7.6,0.6l-7.5,0.7l-7.6-1l-1.7,3.6
		l0.3,2.2l-6,3.1l-6.7-0.3l-0.6-3.4l3.2-5.3L517,112l-1.6-6.3l-4.7,0.9v-2.2l0.6-7.5l2.2-9l1-6l-0.2-1l6.9-4.7l-1.6,7.6l2.5,0.4
		l0.1,7.4l1.3,4.3l6.1,6.7h6.9l6,4.9l3.9-2.2l1.4-5.6l0.8,1.6l2.7-4.2v5.4l-4,5.6l-2.8,1.6l4.9,0.1l11.5-4l3.5,0.3l3.9-7l3-0.4
		l-7.3-11.1l-7.9-6.1L550.7,71l-1.5-7l-3.5-6.1l-3.6,0.8l-2.3,1.3l-3,0.3l-6.6,2.8l-3.2,2.3l-3.1,7.1l-0.8-6.6l3.4-3.2l8.7-3.4
		l6.1-2.8l5.6-4.1l4.6-0.6l0.5,10.1l8.2,17l10.8,10.9l5.8,5.2l6,1l2.6,1l15.8,1l8.9,2.8l6.8,12.3l6,4.2l17.1,24l14.2,28.5l2.2,11
		l-0.8,7.8l0.5,6.5l-0.8,6.8l-0.5,1.3l0.3,6.8l0.1,2.4h-5.4l-8.5,0.4h-9.4l-7.2,4.4l-6.3,5.3l-6.7,3.5l-4,4.4l-2.2,7.5l-19.2,0.4
		l-2.7-0.4l-16.6,7L562.4,244.3z M532.9,84.2l-4.9-4l-5.4-1.3l1.8-2.2l6.3-4.8l-4.5,4.8l3.1,1.8L532.9,84.2z"/>
	<path id="path5142" class="st6" d="M517.3,933l-8.1-4.3l-4.5-2.5l-0.6-6.3l-4.4-1.5l-1.8-2.6l-5.1,5.7l-5.3-0.1l-4.8-3.3l-6.5,0.8
		l-4.4,4.4L468,923l-4.5-0.3l-2.3,2.5l2.4,4.5l-2.2,3.3l-0.9,6.5l-6.9,7.3l-2.3,6.1l-11.7,6.1l-3.2,5.1l1.6,5l-5.5,2.9l-1.6,2.8
		l4.3,23.7l2.1,2.8l30.5,41.4l6.9-10.8l7.5-27.3l5.7-22.4l10.4-12l2.9-7l15.9-22.1l2.9-8.4L517.3,933z"/>
	<path id="path5387" class="st6" d="M664.4,561.8l-3-0.1l-5.9-2.5l-5.7-1.1l-5.2,1.9l-1.8,3.5l-4.9-2.1l-2.5-1.3l-2,1.2l-5.2-2.3
		l-3.8-5l-2.5,2.3l-3.3-1l-3.3-1.3l-7.3-3.4l-5.5,3.3l-8.1,1.2l-6.7-3l-3.1-1.2l-2.3-3.1l0.1-2.6l-2.6,0.6l-0.7-5.6l-3.5-1.5
		l-2.2,3.8l-3-4.5l-5.6-2.6l-4.4,2.2l-2.2,0.7v-4.1c0,0,0.8-7,0.4-7.5l-3.7-5.1l2.3-2l0.4-3.6l2.2-3.7l2.7,1.7V509h4.2l3.2-2.5
		l4.2-6.2l2.3,2.5h5.8l0.9,3.6h1.5l1-6.4l6-3l10.1-0.5l5.2-12.3l-0.1-4.8l4.8-1.6l0.1-4.8l2.7-0.5l-0.4-7.9l1.5-1.5l5.4,2.4l2.9-2.2
		l4.7,1.1l1.2-2.9l3.7-0.4l11.5-5l7-7.4l5.4,0.1l4.5-3.1l2.6-1.2l6.5,0.1l16.5,4.8l0.5,5.2l2.1,18.5l3.7,18.2l2.1,10.6v17.9
		l-5.7,20.3l-5,6.5l-6,3.1l-7.5,3.9l-6.8,7L664.4,561.8z"/>
	<path id="path5452" class="st6" d="M84.1,672.1l3.8-3.8l3.4,0.7l-0.5-3.9l2.3-1.5v-3.1l2.6-2.4L97,655l2,2l-0.7,4.5l-1,3.2l1.4,2.1
		l4.7,3.5l2.1,1.3l3.3-2.7l2-1.8l1.8,3.4l1.7,2c0,0,1.8,4.9,2.4,5.8s2,3.1,2,3.1l-0.1,5l-3.9,5.7l-4.3,6.6l-0.1,5.9l2.1,2.4l2.7-0.6
		l4,2l3.4,2.4l3.8,0.1l3.6-2.1l2.6-3.1l3-4.5l4.8-4.8l-1-4.8l-5.3-4.3l-1.3-2.4l0.3-9.8l-2.8-1v-2l2-2l5.1-1.7l7.3-7.6l5-3.1
		l7.8-2.4l3-3.4l2.9-6.4l3.6-2.4l5.6,0.4l8,3.4l6,3.5l2.3-0.6l0.7-5.2l2.7-6.2l2.8-0.3l3.7,4.1l3.1,6h2.4l-0.3-5.7l1.7-8.6l5.7-5.7
		l1.7-2.2l-1.4-3.4l-0.6-2.4l4.3-1.3l7.1,0.8l7,6l4.4,3.6l4.3,0.8l7.6,0.3l4.7,2.4l9.8-20.7l5.8-0.1l27.9,16.5l13,12.9l16.2,27
		l8.3,26.9l2,19.9v1.8l-1.9,17.9l0.1,5.9l-0.1,16.7l-0.4,2.4l-9,1.5l-6.7,2.4l-10.7,11.8l0.1,5.2l-0.3,3.5l-3.3,13.3l-4.4,15.5
		l-1.7,9.5l-7.1,17.7L284,846l-8.7,0.4l-4.5,6.7l-7.5-3.5l-13.2,1l-21.6,3.9L202,865.7l-4.7-5.2l-10.7-19.7l-6.8-5.1l-2.9-6.5
		l-4.2-5.2l0.5-9.3l-2.3-2.3l-7-2.6l-2.3-3.6l-5-2.9l-4.2,0.5l-2.6-2.1l16.1-10.1l0.3-3.6l-5.2-8l-5.7-4.4l-10.9-0.8l-7.5-3.4
		l-12-1.6l-5.4-3.2l-11.7-2.8l-6.8,2.6l-1.8,2.6h-2.1l-4.2-3.3l-6.2,1.5l-7.8,0.3l-8.8,0.8l-4.4,2.6l-4.7-1.8l-5.5-5.2l-1.8-4.9
		l2.9-3.6l13.8-8l1.3-8.3l5.5-10.9l-1.3-12.2l1.3-5.2l7.8-7l2.8-7v-5.2l1.3-3.4l4.4-1.8l0.8-2.3l-1.8-6.7l-6.2-1.6l-1.8,1.6
		L84.1,672.1z"/>
	<path id="path5069" class="st6" d="M295.3,616.5v-11.2l2.5-10.7l-3.9-6.1l-6.6-21.3l-0.2-9.9l5.4-7l3.9,1.7l-0.2-7.5l-2.7-7.5
		l-4.7-2.2L287,529l0.7-8.2l-1.7-1.5l-29.3-0.2l-11.1-1.2l-2.2,0.5l-4.4-5.1l-3.4-3.9l-4.2-1.7l-4.7,3.9L220,512l-2.2,0.7l-3.9-2.7
		l-7.4,1.9l-4.4-3.9l1.5,7.3l-2.9,4.4l-3.4,5.8l-1.7,2.7l-3.4-4.4l-3.7-6.1h-3.7l-2.2-1l-4.9,2.4l-5.9,1l-4.7-5.3l-0.7,4.1l-3,1
		h-5.2l-10.6-0.2l-6.2,0.2l-13.4-4.4l-3.4,1.2l-2.6,6l-2,1.5l-1,5.1l-4.3,2.2l-3.9-4.4L107,521l-6.7-11.6l-5.6-7.3l-2-1.2h-8.1
		l-10,1l-3.5-1.2l-0.5-4.6l-2-4.9l0.5-5.1l-3.2-3.6l-0.5-4.1l-4.2-3.1l-2.5,4.9l-6.5,12.4l2.1,14l-20.3,8.8l6,17.6l-1.8,10.6l19,9.6
		l25.2,18.4l3.9,8.5l8,11.4l-2.6,16.3l-6,16.9l-7,12.7L78,656.8l1,7.5l5.1,7.9l3.7-3.9l3.4,0.7l-0.5-3.9l2.3-1.5v-3.1l2.6-2.4
		L97,655l2,2l-0.7,4.5l-1,3.2l1.4,2.1l4.7,3.5l2.1,1.3l3.3-2.7l2-1.8l1.8,3.4l1.7,2c0,0,1.8,4.9,2.4,5.8s2,3.1,2,3.1l-0.1,5
		l-3.9,5.7l-4.3,6.6l-0.1,5.9l2.1,2.4l2.7-0.6l4,2l3.4,2.4l3.8,0.1l3.6-2.1l2.6-3.1l3-4.5l4.8-4.8l-1-4.8l-5.3-4.3l-1.3-2.4l0.3-9.8
		l-2.8-1v-2l2-2l5.1-1.7l7.3-7.6l5-3.1l7.8-2.4l3-3.4l2.9-6.4l3.6-2.4l5.6,0.4l8,3.4l6,3.5l2.3-0.6l0.7-5.2l2.7-6.2l2.8-0.3l3.8,4.1
		l3.1,6h2.4l-0.3-5.7l1.7-8.6l5.7-5.7l1.7-2.2l-1.4-3.4l-0.6-2.4l4.3-1.3l7.1,0.8l7,6l4.4,3.6l4.3,0.8l7.6,0.3l4.7,2.4l9.8-20.7
		l5.8-0.1l28,16.6L295.3,616.5z"/>
	<path id="path5078" class="st6" d="M286,519.3l-29.3-0.2l-11.1-1.2l-2.2,0.5l-4.4-5.1l-3.4-3.9l-4.2-1.7l-4.7,3.9L220,512l-2.2,0.7
		l-3.9-2.7l-7.4,1.9l-4.4-3.9l1.5,7.3l-2.9,4.4l-3.4,5.8l-1.7,2.7l-3.4-4.4l-3.7-6.1h-3.7l-2.2-1l-4.9,2.4l-5.9,1l-4.7-5.3l-0.7,4.1
		l-3,1h-5.2l-10.6-0.2l-6.2,0.2l-13.4-4.4l-3.4,1.2l-2.6,6l-2,1.5l-1,5.1l-4.3,2.2l-3.9-4.4L107,521l-6.7-11.6l-5.6-7.3l-2-1.2h-8.1
		l-10,1l-3.5-1.2l-0.5-4.6l-2-4.9l0.5-5.1l-3.2-3.6l-0.5-4.1l-4.3-3.2l17.6-28.2l9.6-11.1l3.6-9l6-6.5l0.8-3.9l-2.4-2.6l-8.1-3.1
		l-2.4-3.4l4.7-5.2l4.2-2.5l2-3.8l1-3.2l1-3.2l6.1-3.5l0.2-7l2-0.1l3.4-3.3l3.7,0.6l2.6-3.3l4.5,0.1l0.1,3l1.2,3.3h3.3l3.3-1.4
		l1.9-4.1l2.8,2.1l20.7,2.1l6.4-1.8l7.6-0.8l3.4,1.2l1.1,2.8l3,0.1l3-4l4.7-3.5l6.8-0.4l7.7,2.2l3.3,0.6l3.7,0.7l4.7-2.6l2.8-0.4
		l0.5,5.5l1.4,5l0.5,2.9l4.4,10.3v3.1l5.1,0.1l7.1,4.7l4.4-0.6l1-1.5l0.1-2.5l2.1-2.2l2.6-1.8l12.2,8.4l14.1,12.6l1.5,2.1l1.3,1.2
		l2.4,0.8l5.9-1.9l5.9-0.1l1.5,4l-0.6,2.6l3.3-0.5l3.7-3.1v-1.9l2.7-2l2.4,1.6l4.3,1l5-2.6l2.7,0.5l-3.1,4l0.2,4.1l-3.3,6.7l1.2,1.4
		l4.6-0.6l6.4,2.5h4.3l2.7,2l0.1,6.3l3.4,3.7l3,5.8l-4.6,16.9l-8.2,2.8l-4.5,5.1l-1,4.8l-4.1,1.6l1.4,3.1l-3.7,4.9l-0.6,2.2
		l-3.7,0.2v4.3l-3-0.1l-3.2,5.6l-6.8,2.8l4.9,3.4l4.3,8.8l-9.9,0.5L286,519.3z"/>
	<path id="path5091" class="st6" d="M314.4,417.1l2-3.1l12.5,4.2l4.7,5.3l5-3.3l-1.7-2.5l0.6-9.8l2.5,0.3l1.4,3.4h6.7l1.1-1.7
		l13.4,1.4l1.4-3.9l-1.4-2.2l3.5-5.5l1.7-4.7h2.9l4.6,3.8l3.5,3.5l3.9-3.5l1.1-6.9l-6-9l-2.1-2.1l-6.7-5.2l3.5-3.5V369l-4.4-4.2
		l-1.2-9.8l5-3.1l-3.1-5.3h-10l-3.6-3.6v-2.2l4.2-1.1l-2.6-3.1l-2.2-0.5l-1.7-5.6l-2-2.5l0.8-4.5l2.5-0.6l-0.8-2.8l-6.4-2.8l-2.5-2
		h-8.6l-1.1,2.3l-2.5-2l0.4-5.6l-4.2-1.1l-3.2-0.3l-2.1,1.7l-2.5-3.5l-5.6-2.8l-2.5-5.5l0.4-3.1l-4.3-2l-3.5-4.3l-4.6,2.8l-1.8-4.2
		l-0.7-3.1h-4.2l-5.3,6.9l-10-9.4h-3.2l-7.4-0.6l-1.6,1.9l-1.9,0.8l-0.1,6.2l-2.9,2.9l-7.4,2.6l-11.1,2.2l1.2,1.9l-2.2,5.3l-8,2.5
		h-5.8l-5.7,1.9h-5.3l-2.6,2.1l-3.6-0.5l-4-1.3l1.6,3.5l-1,3.5l-5.4,3.2l-8.2,0.5l-2.7,4l-3.4,9.5l-3.5,3.5l0.9,5l-5.1,2.3l-2.9,3.4
		l-5.1,0.4l-6.5,2.1l-15.2-1.9l-6.8,4.5l-5.8,5.4l-9.3,6l-5-1.2l-12,1.3l-0.5,4.4l-5.7,6.3v3l2-0.1l3.4-3.3l3.7,0.6l2.6-3.3l4.5,0.1
		l0.1,3l1.2,3.3h3.3l3.3-1.4l1.9-4.1l2.8,2.1l20.7,2.1l6.4-1.8l7.6-0.8l3.4,1.2l1.1,2.8l3,0.1l3-4l4.7-3.5l6.8-0.4l7.7,2.2l3.3,0.6
		l3.7,0.7l4.7-2.6l2.8-0.4l0.5,5.5l1.4,5l0.5,2.9l4.4,10.3v3.1l5.1,0.1l7.1,4.7l4.4-0.6l1-1.5l0.1-2.5l2.1-2.2l2.6-1.8l12.2,8.4
		l14.1,12.6l1.5,2.1l1.3,1.2l2.4,0.8l5.9-1.9l5.9-0.1l1.5,4l-0.6,2.6l3.3-0.5l3.7-3.1v-1.9l2.7-2l2.4,1.6l4.3,1l5-2.6l2.6,0.5
		L314.4,417.1z"/>
	<path id="path5104" class="st6" d="M456.4,203.1h-5.8l-3.8-1.1l4.6-8.3l-1.5-4.5l1.5-3l8-3l1.5-4.3l-7.4-6l-5.9,2.8l-2.4-3.4
		l-4.2,1.1v3h-4.2l-2.7,2.3l-3.8-4.2l-5.4,6l-1.9-4.1l-4.2-1.5l-3-2.6l-4.2-4.1h-5.8l-2.8,1.7l-8.3,0.6l-5.4,4.1l-1.9-2.8l-0.4-3.4
		l-3.2-4.8v0.8l-10.8-0.9l-7.4,1.6l-6.3,0.6l-3.4,5.2l-7.2,2.3l-7.6,7.7l-11.8,11.8l-10.9,6l-6.5,2.2l-5.5,10.7l2.3,3.4l2.8-4.7
		l4.9,0.7l7.3-9l6-1l5.5,6l-6.3,22l-3.8,2.2l-4,7.6l1,6l2.2,0.4l1.2,7l-3.5,5.9l-7.6,5.7l-3.4,6.1l-7.6,4.5h-6.6l-4.8,3.9l-5.3,1.3
		l-2.7,2.7l-5.4,0.1l10,9.4l5.3-6.9h4.2l0.7,3.1l1.8,4.2l4.6-2.8l3.5,4.3l4.3,2l-0.4,3.1l2.5,5.5l5.6,2.8l2.5,3.5l2.1-1.7l3.2,0.3
		l4.2,1.1l-0.4,5.6l2.5,2l1.1-2.2h8.6l2.5,2l6.4,2.8l0.8,2.8l-2.5,0.6l-0.8,4.5l2,2.5l1.7,5.6l2.2,0.5l2.5,3.1l-4.2,1.1v2.2l3.6,3.6
		h10l3.1,5.3l-5,3.1l1.2,9.8l3.3-3.3l4.1-1.8v-1.8l3.8,2.6l0.8,4.5l3.8-2.3l5,1.9l4.6-2.3l7.3-5.7h3.8l-1.9-8.7l1.1-6.4l5-8.7
		l11.5-5.3l3.8-5.3l3.4-6.6l1.4-2.9l4.5-3.3v-5.3l5.9-3.9l3.4,0.3l1.4-0.3l-2.5-2.8l0.6-4.5l4.2-1.4l2.8-10l-4.2-3.6l-1.4-5.3l5-2.8
		l3.6-11.7l-1.7-16.2L452,219l4.7-2.8l6.4-8.3l-2.2-0.2L456.4,203.1z"/>
	<path id="path5110" class="st6" d="M394,393.2l3.8,0.4l0.7,3.1l4.9,3.1l4.2,0.7l8-0.3l1.4,3.1l4.9,3.8l4.5-0.3l5.9,5.8l2.4,3.8
		l11.1,5.5l-2.1,1.7l-0.4,3.8v4.1l3.8,3.4l3.1,2.4l0.4,3.4l-2.8,10.3l-5.2,1l-3.1,4.5v4.5l2.1,6.5l-3.1,6.9v3.4l-5.9,3.4l-0.7,6.5
		l3.1-0.7l2.4,2l2.8-1l1.7,2.7l-2.4,3.4l-3.1,5.8v3.1l1.7,4.1l-2.4,3.1h-4.9l-3.8-2.4l-6.3,1.4l-4.9,3.1l-4.5-0.3l-3.1-0.3l-5.5,1.4
		l-2.1,5.5l-1.7,2.7l0.7,3.4l-3.1-2l-3.8-7.9l-5.2-4.1l-2.4-5.8l-4.2-4.4h-3.1l-1.4,4.8l-3.1-2.1l-3.5-6.8l-7.6-5.8l-10.1,4.5
		l-7.6,1.4l-7-1.4l-4.5-4.5l-7-2.4l-4.5,4.4l-5.2,4.5l-7,0.7l-4.9,0.7l-2.9-2.3l3.7-0.4l0.6-2.2l3.7-4.9L308,485l4.1-1.6l1-4.8
		l4.5-5.1l8.2-2.8l4.6-16.9l-3-5.8l-3.4-3.7l-0.1-6.3l-2.7-2h-4.3l-6.4-2.5l-4.6,0.6l-1.2-1.3l3.2-6.6l-0.2-4.1l3-4l3.8-0.9l2-3.1
		l12.5,4.2l4.7,5.3l5-3.3l-1.6-2.5l0.6-9.8l2.5,0.3l1.4,3.4h6.7l1.1-1.7l13.4,1.4l1.4-3.9l-1.4-2.2l3.5-5.5l1.7-4.7h2.9l4.6,3.8
		l3.5,3.5l3.9-3.5l1-7L394,393.2z"/>
	<path id="path5121" class="st6" d="M532.9,662.1l0.2-3.7l4.6-2.8l3.5-3.9l2.1-10.2l1.4-1.6l0.7-5.1l-1.7-3.2l0.5-4.4l5.3-1.6
		l2.3-4.4l2.5-3.5l0.2-13.9l-3.4,0.2l-4.8-4.5l-3.3-7.5l-6-2.1l-3.6-6.6V580l1.2-14.6l0.9-3.9l-2.4-17.9l0.3-3.9l-4.2-13.1
		l-15.1-45.6l0.9-3l-1.8-2.4v-3.3h-1.8l-1.5,3.6l-9.7,1.2l-2.1,5.7l-1.8,0.9l-4.2-1.2l-10-1.8l-5.1,3.3l-2.4,6.9l-6.1,6.6l-6.7,0.3
		l-5.5,3.6l-0.6-3.6l4.5-6.9l-0.3-3.9l-3.9,2.4h-4.5l1.8,5.4l-4.8-3l-5.1-5.7l-3,1.6l1.7,2.7l-2.4,3.4l-3.1,5.8v3.1l1.7,4.1
		l-2.4,3.1h-4.9l-3.8-2.4l-6.3,1.4l-4.9,3.1l-4.5-0.3l-3.1-0.3l-5.5,1.4l-2.1,5.5l-1.7,2.7l0.7,3.4l-3.1-2l-3.8-7.9l-5.2-4.1
		l-2.4-5.8l-4.2-4.4h-3.1l-1.4,4.8l-3.1-2.1l-3.5-6.8l-7.6-5.8l-10.1,4.5l-7.6,1.4l-7-1.4l-4.5-4.5l-7-2.4l-4.5,4.4l-5.2,4.5l-7,0.7
		l-4.9,0.7l-2.9-2.3v-0.2v4.3l-3-0.1l-3.2,5.6l-6.8,2.8l4.9,3.4l4.3,8.8l-9.9,0.5L287,529l1.7,5.8l4.7,2.2l2.7,7.5l0.2,7.5l-3.9-1.7
		l-5.4,7l0.2,9.9l6.6,21.3l3.9,6.1l-2.5,10.7v11.2l-1.4,12.3l13,12.9l16.2,27l8.2,26.9l2,19.9v1.6l3.1-1.1l13,1.5l6.4,3.3l3.3-1.5
		l5.5-4.5l6,5.4h4.2l4.2,1.5l11.2,0.9l4.2-6l6-4.5l1.5-2.7l1.5-3.9l5.8-3.9l3.3-0.6l-3-4.2l-1.5-5.4l5.1-0.3l11.3,3.7l11.8,1.5
		l9.4,1.5l7.6,1.8l3.6-7.2l2.7-5.7l6.1-2.7l6.4,1.2l5.7-3.7l13.3,7.4l6.1,3.5l1.8-3l-0.3-4.2l0.6-6.3l-3.6-3.9l2.7-0.6h3l4.2-2.7
		l11.8,0.6l3.6-1.5l-3-5.1l1.8-3.3l4.8-3l6.7,7.5l4.6,0.4L532.9,662.1z"/>
	<path id="path5135" class="st6" d="M331.6,735.3l0.1,5.9l-0.1,16.7l-0.4,2.4l-9,1.5l-6.7,2.4l-10.7,11.8l0.1,5.2l-0.3,3.5
		l-3.3,13.3l-4.4,15.5l-1.7,9.5l-7.1,17.7L284,846l-8.7,0.4l-4.4,6.7l8.6,7.9l13,18.1l3.6,2.1l3.6,8l7.3,4.4l6.8,1.5l5.5,3.1
		l2.3,0.5l4.9-7.2l8.9,3l4.4,0.4l-1-3.3l-4.4-2.3l5.1-4.3h6.3l9.4,2.5l1.5-4.6l4.8-2.9l0.6-2.9l-1.9-6.1l2.8-2.3h5.1l2-4.2l2.9-0.9
		l5.4,3l8.2,3l7.8-1.9l1,2l-0.6,5.6l1.8,3l3.1,0.7l6.9,0.7l4.1-1.2h1.8l5.1-9.1l-0.6-3.3l1.9-2.3l-0.1-2.7l4.1-2.7l3.8-1l1.8-5.2
		l3.4-2.7l4.1-2.2l3.8,0.3l1.6,3.3l2.2,2.9l2.2,1.2l2.9,0.3l1.6,1.9l-0.1,3.3l1.8,1.9l1.6-0.6l1-1.2l0.4-3l-1.4-2l-0.3-2.3l1.8-2.2
		l3.1-2l3.4-2.5v-2.3l-0.4-3.2l-4-0.4l1.3-5.3l-0.6-6.5l-5.2-10.8l-5.6,0.5l-4-7.9l-2-3.2l3.4-2.6l1.8-20.8l-0.8-5.3l1.8-1.6
		l0.8,3.2l8.7,2.8l2.4,2.2l2.2-1.6l-0.6-10.3l2.8-2l1.4-2.4l-3.8-3.2l0.6-16.6l-3.2-3.8l5.5-3.4l0.4-11.1l1.8-3l-0.4-8.1l3-3.2v-3
		l-9.9-1l-2.2-6.5l2.4-1l0.8-2.8l-6.5-2.6l-7.4-1.7l-9.4-1.5l-11.7-1.7l-11.2-3.6l-5.1,0.3l1.5,5.4l3,4.2l-3.3,0.6l-5.8,3.9
		l-1.5,3.9l-1.5,2.7l-6,4.5l-4.2,6l-11.2-0.9l-4.2-1.5h-4.2l-6.1-5.4l-5.5,4.5l-3.3,1.5l-6.4-3.3l-13-1.5l-3.1,1.2L331.6,735.3z"/>
	<path id="path5146" class="st6" d="M406.4,883.7l2.9,3.2l17,2.9l5.1-1.5l4.2,3.2l-0.8,1.9l4.3,9l-0.1,5.9l2.9,1.1l7.6-2.3l7.6,1.9
		l-3.2,3l-3.2,0.2v4.2l-3,3.8l-5.1-1.3l-6.3,5.3l0.2,2.5l9.1,1.7l0.2,1.9l11.2,4l2.1-1.9l2.4,0.6l-0.9,6.5l-6.8,7.3l-2.3,6.1
		l-11.7,6.1l-3.2,5.1l1.6,5.1l-5.5,2.9L431,975l4.4,23.8l-29.2-36.6l-4.7-4.7l-7.4-8.1l-4.7-7.3l-4.2-10.6l-12.5-6.5l-7-11.2
		l-5.7-4.4l-25-4.2l-10.1-5.7l-3.5-0.8l5-7.2l8.9,3l4.4,0.4l-1-3.3l-4.4-2.3l5.1-4.3h6.3l9.4,2.5l1.5-4.6l4.8-2.9l0.6-2.9l-1.9-6.1
		l2.8-2.3h5.1l2-4.2l2.9-0.9l5.4,3l8.2,3l7.8-1.9l1,2l-0.6,5.6l1.8,3l3.1,0.7l6.8,0.8L406.4,883.7z"/>
	<path id="path5161" class="st6" d="M520.4,933l-3.1-0.1l-12.8-6.9l-0.6-6.3l-4.4-1.4l-1.8-2.7l-5.2,5.7l-5.3-0.1l-4.6-3.3l-6.6,0.7
		l-4.2,4.4l-8.3-0.6l-2.2,2.7l2.4,4.4l-2.2,3.4l-2.4-0.7l-2.1,1.9l-11.2-4l-0.2-1.9l-9.1-1.7l-0.2-2.5l6.3-5.3l5.1,1.3l3-3.8v-4.2
		l3.2-0.2l3.2-3l-7.6-1.9l-7.6,2.3l-2.9-1.1l0.1-5.9l-4.3-9l0.8-1.9l-4.2-3.2l-5.1,1.5l-17-2.9l-2.8-3.3l0.2-3.6l4.2-1.2h1.8
		l5.1-9.1l-0.6-3.3l1.9-2.3l-0.1-2.7l4.1-2.7l3.8-1l1.8-5.2l3.4-2.7l4.1-2.2l3.8,0.3l1.6,3.3l2.2,2.9l2.2,1.2l2.9,0.3l1.6,1.9
		l-0.1,3.3l1.8,1.9l1.6-0.6l1-1.2l0.4-3l-1.4-2.2l-0.3-2.3l1.8-2.2l3.1-2l3.3-2.5l5-0.1l10.4-7.2l9.1,8l3.2,0.5l3.8-6l-0.7-2
		l11.5-1.2l4.5-5.4l4.7,0.8l7.8-3.7l4.3-6.5l7.6,4.4l3.3,3l3.3-6l-1.1-7.1l1.7-11l4.1,0.3l0.5-5.5l9.6-16.4l3.1-1.8l3.3-2.3l5.3-4.4
		l6.5-17.6l8.3-11.4l2.8,0.7l3,3.5l10.4,0.9l1.3,6.5l-1.8,5.7l-7,6.5l-1.6,10.4l-3.2,17.9l-0.2,11.2l0.3,5.2l-3.4,7.8l-6.8,10.7
		l-4.5,7.7l-4.2,5.2l-5.7,3.6l-11.5,5.2l-12,7.3l-8.1,12L524,885l1.6,33l-4.7,13L520.4,933z"/>
	<path id="path5184" class="st6" d="M538.8,668.1l10.2,5.7l4,7l5.3,4.8l0.9,10l-4.5,2.1l3.5,11.3l5.7,9.6l14.1,13.9l8.4,1.7l-4,10.4
		l-2,3.5l-8.2,11.5l-6.5,17.6l-5.3,4.5l-3.3,2.3l-3.1,1.7l-9.6,16.4l-0.5,5.5l-4.1-0.3l-1.7,11l1.1,7.1l-3.3,6l-3.3-3l-7.6-4.4
		l-4.3,6.4l-7.8,3.7l-4.7-0.8l-4.4,5.4l-11.5,1.3l0.7,2l-3.8,6l-3.2-0.5l-9.1-8l-10.4,7.2l-5,0.1l0.1-2.3l-0.4-3.2l-4-0.4l1.3-5.3
		l-0.6-6.5l-5.2-10.8l-5.6,0.5l-4-7.9l-2-3.2l3.4-2.6l1.8-20.8l-0.8-5.3l1.8-1.6l0.8,3.2l8.7,2.8l2.4,2.2l2.2-1.6l-0.6-10.3l2.8-2
		l1.4-2.4l-3.8-3.2l0.6-16.6l-3.2-3.8l5.5-3.4l0.4-11.1l1.8-3l-0.4-8.1l3-3.2v-3l-9.9-1l-2.2-6.5l2.4-1l0.8-2.8l-6.5-2.5l3.7-7.1
		l2.7-5.7l6.1-2.7l6.4,1.2l5.7-3.7l13.3,7.4l6.1,3.5l1.8-3l-0.3-4.2l0.6-6.3l-3.6-3.9l2.7-0.6h3l4.2-2.7l11.8,0.6l3.6-1.5l-3-5.1
		l1.8-3.3l4.8-3l6.7,7.5l4.4,0.3L538.8,668.1z"/>
	<path id="path5200" class="st6" d="M596.8,753.2l3.7-11.8l5.2-3.6l6.5-1.3l6.5-7.3l6.1-7.8l6-10.6l13-2l7-6.8l18.7-7.3l5.3-13.8
		l0.5-39.6l14.4-20.9l-0.7-7l0.8-7.5l-5.2-16.4l-5-3.9L667,574.2l-3.4-8.3l0.8-4.1l-3.1-0.1l-5.6-2.5l-5.8-1.2l-5.3,2.2l-1.6,3.7
		l-7.5-3.7l-1.9,1.4l-5-2.5l-3.9-4.8l-2.8,2.3l-13.4-5.8l-5.8,3.2l-8.1,1.1l-9.8-4.1l-2.3-3.4l0.2-2.5l-2.7,0.8l-0.8-5.5l-3.4-1.5
		l-2.2,4l-3-4.6l-5.5-2.6l-3.1,1.5l-3.8,1.5l0.2-3.7l0.5-8l-3.9-4.9l2.3-2.2l-0.9-3.8l-2.8-2l0.6-4.1l-3.1-1.7l-1.4,3.2l0.3-5.2
		l-1.6-7.7H545l0.9-3.4l-3.1-2.2l-2.8,0.9l-3.8,1.2l-2.3-6.6h-5l-1.6-2.3l-4.2,2.1l-3.1-1.9l0.5-4l-3-6.3l-1.1,2.5l-1.5-0.5l-0.9,3
		l15.2,45.6l4.2,13.1l-0.3,3.9l2.4,17.9l-0.9,3.9l-1.2,14.6v3.3l3.6,6.6l6,2.1l3.3,7.5l4.8,4.5l3.4-0.2l-0.2,13.9l-2.5,3.5l-2.3,4.4
		l-5.3,1.6l-0.5,4.4l1.6,3.2l-0.7,5.1l-1.4,1.6l-2,10.2l-3.5,3.9l-4.6,2.8l-0.2,3.7l3.2,5.3l2.7,0.7l10.2,5.7l4,7l5.3,4.8l0.9,10
		l-4.4,2.1l3.5,11.3l5.7,9.6l14.1,13.9l8.4,1.7l-4,10.4l-2,3.5l3,0.8l3,3.5L596.8,753.2z"/>
	<path id="path5214" class="st6" d="M558.1,276.6l5.2-6.6l5.5-14l-0.3-7.7l-1.4-3.4l-4.6-0.5l-7.5-6.1l-0.3-4.7L544,221.8l0.3-3.6
		l-3.9-0.6l-6.4,1.7l-8.4-1.9l-11.4-9.2v-3.6l-3.6,1.7L510,209l-5.9,2l-3.5-1.6l-9.4,2.9l0.3-8l0.6-1.9h-9.7l-19.5,5.7l-2-0.4
		l2.1,0.4l-6.4,8.2l-4.7,2.8l-1.7,23.1l1.7,16.2l-3.6,11.7l-5,2.8l1.4,5.3l4.2,3.6l-2.8,10l-4.2,1.4l-0.6,4.5l2.5,2.8l-1.4,0.3
		l-3.4-0.3l-5.9,3.9v5.3l-4.5,3.3l-1.2,2.2l1.7,0.1l8.1,0.6l3.6,4.5l3.9,2.6l3.6-3.2l4.2-1l9.1,4.1l6.2,3.2l4.9-1.3l5.8-2.9l2.6,3.2
		l-0.6,4.5l2.3,3.5l2.6-2.5l2.9-4.1l-0.6-4.5l2.9-1.6l3.2,3.5l3.6,1.6l8.8-3.8l10.7,0.1l1-7.3l3.1-4.6l3.7,1l20-8.8l3.3-0.4l8.1-3.3
		l-0.6-2.9l-5.4-0.8l-4-6.9l3.3-0.8l4.3-4.5L558.1,276.6z"/>
	<path id="path5210" class="st6" d="M456.4,203.1h-5.8l-3.8-1.1l4.6-8.3l-1.5-4.5l1.5-3l8-3l1.5-4.3l-7.4-6l-5.9,2.8l-2.4-3.4
		l-4.2,1.1v3h-4.2l-2.7,2.3l-3.8-4.2l-5.4,6l-1.9-4.1l-4.2-1.5l-3-2.6l-4.2-4.1h-5.8l-2.8,1.7l-8.3,0.6l-5.4,4.1l-1.9-2.8l-0.4-3.4
		l-2.7-4.1l-0.4-0.7l12.4-3l5.7-4.8l9.7-2.1l10.1-13.3l1.6-5.1l17.5-13.2l8-5.1l7.5-8.5l2.9-8.7l-0.6-4.7l1.4-2.3l4.7,0.3l4-0.4
		l5.4-2.3l3.8,0.9l9.3,0.4l4.7-2.2l1.2-1.9h6.9l14.6-5.6l-1,6l-2.2,9l-0.6,7.5v2.3l4.7-0.9l1.6,6.2l2.5,0.9l-3.2,5.3l0.6,3.4
		l6.6,0.3l6-3.1l-0.4-2.2l1.7-3.6l7.6,1l7.5-0.7l7.6-0.6l12.2-5l-3.5,10.1l-7.9,12.5l-4.7-2.2l-4.8-2.8l-11.1-0.3l-10.1-0.4
		l-5.6,10.7l-2.5,4.4l0.3,2.5l-5.4,7l-5.7,7.8l-1.9,1.6l1.9,5.6l-1.9,3.7l5.4,1.9l-4.4,5.3l-5.1-8.1l-3.2-3.5l-9.2,3.4v4.4l-4.4,1.6
		l-2.9,3.4l-7-0.3l11.1,11.5l-1,4.4h-4.1l-4,4.7l-6-1.9l-6.3,4.4l-0.9,8.6L456.4,203.1z"/>
	<path id="path5219" class="st6" d="M506.2,321.6l-8.8,3.8l-3.6-1.6l-3.2-3.5l-2.9,1.6l0.6,4.5l-2.9,4.1l-2.6,2.5l-2.3-3.5l0.6-4.5
		l-2.6-3.2l-5.8,2.9l-4.9,1.3l-6.2-3.2l-9-4.1l-4.2,1l-3.6,3.2l-3.9-2.6l-3.6-4.5l-9.7-0.8l-3.7,7.2l-3.8,5.3l-11.5,5.3l-5,8.7
		l-1.1,6.4l1.9,8.7h-3.9l-7.3,5.7l-4.6,2.3l-5-1.9L380,365l-0.8-4.5l-3.8-2.6v1.8l-4.1,1.8l-3.3,3.3l4.4,4.2v3.1l-3.5,3.5l6.7,5.2
		l2.1,2.1l6,9l10.3,1.4l3.8,0.4l0.7,3.1l4.9,3.1l4.2,0.7l8-0.3l1.4,3.1l4.9,3.8l4.5-0.3l5.9,5.8l2.4,3.8l11.1,5.4l-2.1,1.7l-0.4,3.8
		v4.1l3.8,3.4l3.1,2.4l0.4,3.4l-2.8,10.3l-5.2,1l-3.1,4.5v4.5l2.1,6.5l-3.1,6.9v3.4l-5.9,3.4l-0.7,6.5l3.1-0.7l2.4,2l2.8-1l3-1.6
		l5.1,5.7l4.8,3l-1.8-5.4h4.5l3.9-2.4l0.3,3.9l-4.5,6.9l0.6,3.6l5.5-3.6l6.7-0.3l6.1-6.6l2.4-6.9l5.1-3.3l10,1.8l4.2,1.2l1.8-0.9
		l2.1-5.7l9.7-1.2l1.4-3.5l-1.2-3.7h-6l-2-2.8l-3.6,3.6l-3.7-3.6l-0.4-4.4l-2.8-4.4l-1.6-0.4l0.4-2l0.4-2.8l-3.2-2.4l-2.4-7.1l2-4.8
		l-0.8-4.8l2-4.8l4.4-0.4l5.6,1.2l1.2-7.5l1.6-7.9l4.4-4.4l-1.6-4.8l-4.8-1.6l4.4-3.6l4-4.8l3.6,2.8v-5.5l-3.6-4l-7.2-2.4l4-4.4
		l5.6-2l1.6-2l-3.2-4.8l-4-2.8l-0.8-4l6-3.6l0.4-6.7l5.6-5.5l3.2-5.1l3.6-4l-2-5.1l-4-6.7l0.4-7.2L506.2,321.6z"/>
	<path id="path5243" class="st6" d="M656.1,217.8l2.4,8.6l7.1,6.3l9.7,3.9l4.5,4.2l12.4,5.2l6.6,3.9l-0.8,7.3l-16.8,13.3l-4.5,6.4
		l1.1,9.4l0.4,5.6l-5-3v-6.2h-1.1l-2,3.3l-8.1-3.3l-1.1-2l-7.9-0.9l-3.3,2.6l-1.8-0.7l0.4-4.2l-6.6-5.1l-2,1.8l-3.7,0.9l-1.7,1.3
		l2.2,2v7.4l-2.8,1.7l-5.2-3l0.4-2.2l-3-0.4l-1.7,5.7l1.5,1.8l-3.9,2l-2.2-3.1h-3l-3.1,2.8l-0.5,4.2l-4.8,0.3l-2.4,1.1l-3.4-4.6
		l1.9-1.9l-2.2-4.4l-4.4-2.8l-3.5,2.5l-2.2,3.7l-2.6-1.5l-1.5,0.7l-2.5,3.5l-8.5,0.6l-6.5-4.8l3.5-1.5l2.9-8.5l2.7-2.1l-0.8-3.1
		l-7.3,0.8l-7.3,6.1l-6.7,2.9l-3-0.6l3.8-5l5.2-6.6l5.5-14l-0.3-7.7l-1.5-3.6l16.5-6.9l2.2,0.6l19.9-0.6l2.2-8.1l4-4.2l6.8-3.3
		l13.2-9.4l23.5-0.6L656.1,217.8z"/>
	<path id="path5265" class="st6" d="M509.7,362.2l0.4-6.7l5.6-5.5l3.2-5.1l3.6-4l-2-5.1l-4-6.7l0.4-7.3l1-7.2l3.1-4.6l3.7,1l20-8.8
		l3.3-0.4l8.1-3.3l-0.6-2.9l-5.4-0.8l-4-6.9l3.3-0.8l4.3-4.5l0.8-1l3,0.6l6.7-2.9l7.3-6.1l7.3-0.8l0.8,3.1l-2.7,2.1l-2.9,8.5
		l-3.5,1.5l6.5,4.8l8.5-0.6l2.5-3.5l1.5-0.7l2.6,1.5l2.2-3.7l3.5-2.5l4.4,2.8l2.2,4.4l-1.9,1.9l3.4,4.6l2.4-1l4.8-0.3l0.5-4.2
		l3.1-2.8h3l2.2,3.1l3.9-2l-1.5-1.8l1.7-5.7l3,0.4l-0.4,2.2l5.2,3l2.8-1.7v-7.4l-2.2-2l1.7-1.3l3.7-0.9l2-1.8l6.6,5.1l-0.4,4.2
		l1.8,0.7l3.3-2.6l7.9,0.9l1.1,2l8.1,3.3l2-3.3h1.1v6.3l5,3l0.3,1.9l-0.5,7.2l-1.6,4.7l0.5,14.1l-4.7,12.5l0.1,8.8l-4.6,0.3
		l-4.5,3.4l-7.2-0.7l-0.8,4.8l3.8,6l-2.7,4.1l-9.9-3.5l-3,3h-9.8l-4.2,2.2l-9.8,2.2l-15.2,4.4l-10.6,3h-8.3l-13.6-1.9l-11.7,0.4
		l-16.6-0.4h-18.1l-21.9-2.9L509.7,362.2z"/>
	<path id="path5269" class="st6" d="M513.2,472.4v3.2l2,2.5l1.4,0.4l1-2.5l3.1,6.4l-0.4,4.2l3.1,1.9l4.2-2.3l1.5,2.3h5l2.3,6.4
		l3.1-0.8l3.5-1.1l3.1,1.9l4.2-1.5l1.5-11l1.2-7.9l6.1-5.7l1.2-6.4l1.2-12.5l5-14l7.7-12.5l0.4-6l15-6.8l-1.2-3l5.4-1.9l1.2-6.4
		l-3.1-3.8v-7.2l-5-5.7l-0.8-3.8l4.2-4.2l3.1-4.2H584l-12.1-1.9l-12,0.2l-15.6-0.2l-18.8,0.1l-21.9-2.9l0.8,3.9l4,2.8l3.2,4.8
		l-1.6,2l-5.6,2l-4,4.4l7.2,2.4l3.6,4v5.5l-3.6-2.9l-4,4.8l-4.4,3.6l4.8,1.6l1.6,4.8l-4.4,4.4l-1.6,8l-1.2,7.5l-5.6-1.2l-4.4,0.4
		l-2,4.8l0.8,4.8l-2,4.8l2.4,7.1l3.2,2.4l-0.4,2.8l-0.4,2l1.6,0.4l2.8,4.4l0.4,4.4l3.6,3.6l3.6-3.6l2,2.8h6l1.2,3.6L513.2,472.4z"/>
	<path id="path5285" class="st6" d="M545.8,494.8l-0.7,3.3l3,0.3l1.7,6.9l-0.3,5.9l1.7-3.3l2.7,2l-0.3,4l2.7,2l1,3.6l0.3-3.3
		l2.3-3.6l2.7,1.7v-5.3h4l3.3-2.6l4-6.3l0,0l2,2.3l6.4,0.3l0.7,3.6h1.3l1-6.6l6-3l10.1-0.3l5.4-12.2l-0.3-5l5-1.3v-5l2.7-0.7
		l-0.3-7.6l1.3-1.7l5.4,2.3l3-2l4.7,1l1.3-3l3.7-0.3l6-2.6l5.4-2.3l7-7.3h5.7l4-3l2.9-1.2h6.7l9.4,3l7,1.8l-0.2-11.9l4.7-12.1
		l-1.2-10.6h-4.3l-5.8,1.5l-0.3,3.4l-1.6,2l-3.6-2.2l-4.1-5l-16.4-0.3l-12.8-0.1l-8.4-1.6l-7.9-2.3l-3.7-3.9l-7.1,1.2l-4,2.6
		l-14.1,4.6l-4-3.6l-3.7-0.6l-14.5,6.8l-0.4,6l-7.7,12.5l-5,14l-1.2,12.5l-1.2,6.4l-6.1,5.6l-1.2,7.9l-1.5,11L545.8,494.8"/>
	<path id="path5281" class="st6" d="M588,407.6l5.4-1.9l1.2-6.4l-3.1-3.8v-7.2l-5-5.7l-0.8-3.8l4.2-4.2l3.1-4.2h1l10.6-3l15.1-4.5
		l9.8-2.2l4.2-2.2h9.8l3-3l9.8,3.4l2.7-4.1l-3.8-6l0.8-4.8l7.2,0.8l4.5-3.4l4.6-0.3v2l6.9,19.3l-0.3,16.1l5.2,18.5l5.7,11.4l0.3,6.5
		l-4.6,0.2l-5,1.1l-0.4,3.8l-1.9,1.5l-3.5-2.2l-3.8-4.5l-15.7-0.4H646l-4.6-0.4l-8.8-1.5l-7.3-2.3l-3.5-3.8l-6.9,1.1l-4.6,2.6
		l-7.7,3l-6.5,2.3l-3.8-4.2l-3.3-0.8L588,407.6z"/>
</g>
<g id="layer10">
	<path id="path5008" class="st7" d="M468.1,1042.9l0.5,21.2l-8.9,16.6"/>
	<path id="path4226" class="st7" d="M468,1042.9l-30.5-41.4l-31.4-39.3l-4.7-4.7l-7.4-8.1l-4.7-7.3l-4.2-10.6l-12.5-6.5l-7-11.2
		l-5.7-4.4l-25-4.2l-10.1-5.7l-5.7-1.3l-5.5-3.1l-6.7-1.6l-7.3-4.4l-3.6-8l-3.6-2.1l-13-18.1l-8.3-7.5l-7.8-3.9l-13.2,1l-21.6,3.9
		L202,865.7l-4.7-5.2l-10.7-19.7l-6.8-5.1l-2.9-6.5l-4.2-5.2l0.5-9.3l-2.3-2.3l-7-2.6l-2.3-3.6l-5-2.9l-4.1,0.5l-2.6-2.1l16.1-10.1
		l0.3-3.6l-5.2-8l-5.7-4.4l-10.9-0.8l-7.5-3.4l-12-1.6l-5.4-3.2l-11.7-2.8l-6.8,2.6l-1.8,2.6h-2.1l-4.2-3.3l-6.2,1.5l-7.8,0.3
		l-8.8,0.8l-4.4,2.6l-4.7-1.8l-5.5-5.2l-1.8-4.9l2.9-3.6l13.8-8l1.3-8.3l5.5-10.9l-1.3-12.2l1.3-5.2l7.8-7l2.9-7v-5.2l1.3-3.4
		l4.4-1.8l0.8-2.3l-1.8-6.7l-6.2-1.6l-1.8,1.6l-0.2-4.9l-5.2-8l-1-7.5l0.7-19.4l7-12.7l6-16.8l2.6-16.3l-8.1-11.4l-3.9-8.5
		l-25.2-18.4l-19-9.6l1.8-10.6l-6-17.6l20.3-8.8l-2.1-14l6.5-12.4l20-33.2l9.6-11.1l3.7-9l6-6.5l0.8-3.9l-2.4-2.6l-8.1-3.1l-2.4-3.4
		l4.7-5.2l4.2-2.5l2-3.8l1-3.2l1-3.2l6.1-3.5l0.3-10l5.7-6.3l0.5-4.4l12-1.3l5,1.2l9.3-6l5.8-5.4l6.7-4.5l15.2,1.9l6.5-2.1l5.1-0.4
		l2.9-3.4l5.1-2.3l-0.9-5l3.5-3.5l3.4-9.5l2.7-4l8.2-0.5l5.4-3.2l1-3.5l-1.6-3.5l4,1.3l3.6,0.5l2.6-2.1h5.3l5.7-1.9h5.8l8-2.5
		l2.2-5.3l-1.2-1.9l11.1-2.2l7.4-2.6l2.9-2.9l0.1-6.2l1.9-0.8l1.5-1.9l7.4,0.6l8.5-0.1l2.7-2.7l5.3-1.3l4.8-3.9h6.6l7.6-4.5l3.4-6.1
		l7.6-5.7l3.5-6l-1.2-7l-2.2-0.4l-1-6l4-7.6l3.8-2.2l6.3-22l-5.5-6l-6,1l-7.3,9l-4.9-0.7l-2.5,4.8l-2.3-3.4l5.5-10.7l6.5-2.2l10.9-6
		l11.8-11.8l7.6-7.7l7.2-2.2l3.3-5.2l6.3-0.6l7.4-1.6l10.8,0.9l0.3-0.8l12.2-3l5.7-4.8l9.7-2.1l10.1-13.3l1.5-5.1l17.5-13.2l8-5.1
		l7.5-8.5l2.9-8.7l-0.6-4.7l1.4-2.3l4.7,0.3l4-0.4l5.4-2.3l3.8,0.9l9.3,0.4l4.7-2.2l1.2-1.9h6.9l14.8-5.6l-0.4-1l6.9-4.7l-1.6,7.6
		l2.5,0.4l0.1,7.4l1.3,4.3l6.2,6.7h6.9l6,4.9l3.9-2.2l1.4-5.6l0.8,1.6l2.7-4.2v5.4l-4,5.6l-2.8,1.6l4.9,0.1l11.5-4l3.5,0.3l3.9-7
		l3-0.4l-7.3-11.1l-7.9-6.1L550.7,71l-1.5-7l-3.5-6.1l-3.6,0.8l-2.3,1.3l-3,0.3l-6.6,2.8l-3.2,2.3l-3.1,7.1l-0.8-6.6l3.4-3.2
		l8.7-3.4l6.1-2.8l5.6-4.2l4.6-0.6l0.5,10.1l8.2,17l10.8,10.9l5.8,5.2l6,1l2.6,1l15.8,1l8.9,2.8l6.8,12.3l6,4.2l17.1,24l14.2,28.5
		l2.2,11l-0.8,7.8l0.5,6.5l-0.8,6.8l-0.5,1.3l0.3,6.8l1,7.8l2.4,8.6l7.1,6.3l9.7,3.9l4.5,4.2l12.4,5.2l6.6,3.9l-0.8,7.3l-16.8,13.3
		l-4.5,6.4l1.1,9.4l0.7,7.5l-0.5,7.2l-1.6,4.7l0.5,14.1l-4.7,12.5v10.8l6.9,19.3l-0.3,16.1L684,397l5.7,11.4l1.8,17l-4.7,12.2
		l0.9,17l2.1,18.5l3.7,18.2l2.1,10.6v17.9l-5.7,20.3l-4.9,6.5l-6,3.1l-7.5,3.9l-6.8,7l-1,5.2l3.4,8.3l12.6,11.4l5,3.9l5.2,16.4
		l-0.8,7.5l0.7,7l-14.5,20.9l-0.5,39.6l-5.2,13.8l-18.7,7.3l-7,6.8l-13,2l-6,10.7l-6.1,7.8l-6.5,7.3l-6.6,1.2l-5.2,3.6l-3.7,11.7
		l1.3,6.8l-1.8,5.7l-7,6.5l-1.6,10.4l-3.2,17.9l-0.2,11.2l0.3,5.2l-3.4,7.8l-6.8,10.7l-4.4,7.6l-4.2,5.2l-5.7,3.6l-11.5,5.2l-12,7.3
		l-8.1,12L524,885l1.6,33l-4.7,13l-3.6,10.4l-15.9,22.1l-2.9,7l-10.4,11.9l-5.7,22.4l-7.5,27.3L468,1042.9z M532.9,84.2l-4.9-4
		l-5.4-1.3l1.8-2.2l6.3-4.8l-4.5,4.8l3.1,1.8L532.9,84.2z"/>
</g>
<g id="layer15">
	<path id="path8810" class="st8" d="M764,1.4L1.7,1L1,499.7l13.9-7.6l5.4-7.8l4.2-11.4l0.6-8.4l1.6-2.4l4.8-2.3l2.2-3.2l4.1-1.2
		l2.8-7.2l1.7-13.2l-1.1-12.8L39.6,410l0.6-8.9l3.8-0.4l6.3-3.2c0.2-2.1-2-4.1-2.4-6.2l1.1-7.6l1.6-3.6h4.4L67,384l14.3,3.3l9.5,1.4
		l7.1,3.5l1-2.9l6.1-3.5l0.2-9.9l5.7-6.4l0.5-4.4l12.1-1.3l5.1,1.2l9.3-6l5.9-5.4l6.7-4.5l15.2,1.9l6.4-2.1l5.1-0.4l2.9-3.4l5.1-2.4
		l-0.9-5l3.5-3.5l3.4-9.5l2.8-4l8.1-0.5l5.4-3.2l1.1-3.5l-1.6-3.5l4,1.3l3.6,0.5l2.6-2.1h5.3l5.7-1.9h5.8l8.1-2.4l2.2-5.3l-1.2-1.9
		l11.2-2.2l7.4-2.6l2.8-2.8l0.1-6.2l1.9-0.8l1.6-1.9l7.4,0.6l8.6-0.1l2.8-2.8l5.3-1.2l4.8-3.9h6.6l7.7-4.6l3.3-6.1l7.7-5.7l3.5-6
		l-1.2-6.9l-2.2-0.4l-1.1-5.9l4-7.6l3.8-2.2l6.3-22.1l-5.6-5.9l-5.9,1l-7.3,8.9l-4.9-0.7l-2.7,4.8l-2.3-3.4l5.5-10.6l6.5-2.2
		l10.9-5.9l11.8-11.8l7.6-7.6l7.2-2.2l3.3-5.2l6.3-0.6l7.4-1.6l10.8,0.9l0.3-0.8l12.1-3l5.8-4.8l9.7-2.1l10.1-13.3l1.6-5.1
		l17.4-13.2l8.1-5.1l7.5-8.5l2.9-8.7l-0.7-4.7l1.4-2.3l4.7,0.2l4-0.4l5.4-2.3l3.8,0.9l9.4,0.4l4.6-2.2l1.2-1.9h6.9l14.8-5.6
		l-0.4-1.1l6.9-4.6l-1.6,7.6l2.4,0.4l0.2,7.4l1.3,4.3l6.1,6.7h6.9l6,4.9l3.9-2.2l1.5-5.6l0.8,1.6l2.7-4.2v5.5l-4,5.6l-2.8,1.6
		l4.9,0.1l11.6-4l3.5,0.2l3.9-7l3-0.4l-7.3-11.1l-7.9-6.1l-5.3-10.7l-1.6-7l-3.5-6.1l-3.6,0.8l-2.3,1.3l-3,0.2l-6.6,2.9l-3.2,2.3
		l-3.1,7.1l-0.8-6.6l3.3-3.2l8.6-3.4l6.1-2.8l5.6-4.1l4.6-0.4l-0.1-6.3l-4.9-7.6l-4-4.9l-1.8-11.3l-3.6-7.6l13.1,7.1l14.8,4.1
		l11.3,5.4l21.1,6.5l10.8-1.5l3.4,1.3l1.5,2.6l8.7,3.9l12.1,1.4l23.5,10.9l4.8,3.9l6.6,3.2l74.1,31.3l6.1,3.6l17.5,8.7L764,1.4z
		 M530.7,71.9l-4.5,4.9l3.1,1.8l3.6,5.7l-4.9-3.9l-5.4-1.3l1.8-2.2L530.7,71.9z"/>
</g>
<g id="tubaraMapText">
	<text transform="matrix(1 0 0 1 351.29 263.76)" class="st9 st10">T</text>
	<text transform="matrix(1 0 0 1 361.5651 263.76)" class="st9 st10"> </text>
	<text transform="matrix(1 0 0 1 361.62 263.76)" class="st9 st10">ubará</text>
</g>
<g id="galapaMapText">
	<text transform="matrix(1 0 0 1 457.04 298.61)" class="st9 st10">Galapa</text>
</g>
<g id="puertoColombiaMapText">
	<text transform="matrix(1 0 0 1 428.95 144.49)" class="st9 st10">Puerto</text>
	<text transform="matrix(1 0 0 1 428.95 165.91)" class="st9 st10">Colombia</text>
</g>
<g id="juanDeAcostaMapText">
	<text transform="matrix(1 0 0 1 223.29 375.19)" class="st9 st10">Juan de</text>
	<text transform="matrix(1 0 0 1 287.34 375.19)" class="st9 st10 st11"> </text>
	<text transform="matrix(1 0 0 1 291.35 375.19)" class="st9 st10">Acosta</text>
</g>
<g id="baranoaMapText">
	<text transform="matrix(1 0 0 1 416.64 376.2)" class="st9 st10">Baranoa</text>
</g>
<g id="piojoMapText">
	<text transform="matrix(1 0 0 1 168.69 468.13)" class="st9 st10">Piojó</text>
</g>
<g id="luruacoMapText">
	<text transform="matrix(1 0 0 1 152.64 587.23)" class="st9 st10">Luruaco</text>
</g>
<g id="sabanalargaMapText">
	<text transform="matrix(1 0 0 1 358.77 620.03)" class="st9 st10">Sabanalarga</text>
</g>
<g id="repelonMapText">
	<text transform="matrix(1 0 0 1 175.34 736.9)" class="st9 st10">Repelón</text>
</g>
<g id="manatiMapText">
	<text transform="matrix(1 0 0 1 331.92 806.66)" class="st9 st10">Manatí</text>
</g>
<g id="candelariaMapText">
	<text transform="matrix(1 0 0 1 468.46 773.27)" class="st9 st10">Candelaria</text>
</g>
<g id="santaLuciaMapText">
	<text transform="matrix(1 0 0 1 383 911.24)" class="st9 st10">Santa</text>
	<text transform="matrix(1 0 0 1 383 929.24)" class="st9 st10">Lucía</text>
</g>
<g id="campoDeLaCruzMapText">
	<text transform="matrix(1 0 0 1 456.11 863.51)" class="st9 st10">Campo de</text>
	<text transform="matrix(1 0 0 1 456.11 881.51)" class="st9 st10">La Cruz</text>
</g>
<g id="suanMapText">
	<text transform="matrix(1 0 0 1 441.8 979.9)" class="st9 st10">Suan</text>
</g>
<g id="ponederaMapText">
	<text transform="matrix(1 0 0 1 571.11 640.71)" class="st9 st10">Ponedera</text>
</g>
<g id="palmarDeVarelaMapText">
	<text transform="matrix(1 0 0 1 602.37 517.35)" class="st9 st10">Palmar</text>
	<text transform="matrix(1 0 0 1 602.37 535.35)" class="st9 st10">de </text>
	<text transform="matrix(1 0 0 1 627.39 535.35)" class="st9 st10 st11">V</text>
	<text transform="matrix(1 0 0 1 638.1359 535.35)" class="st9 st10"> </text>
	<text transform="matrix(1 0 0 1 638.0601 535.35)" class="st9 st10">arela</text>
</g>
<g id="santoTomasMapText">
	<text transform="matrix(1 0 0 1 581.5901 438.48)" class="st9 st10">Santo</text>
	<text transform="matrix(1 0 0 1 581.5901 456.48)" class="st9 st10 st11">T</text>
	<text transform="matrix(1 0 0 1 590.6052 456.48)" class="st9 st10"> </text>
	<text transform="matrix(1 0 0 1 590.5901 456.48)" class="st9 st10">omás</text>
</g>
<g id="malamboMapText">
	<text transform="matrix(1 0 0 1 531.64 338.99)" class="st9 st10">Malambo</text>
</g>
<g id="polonuevoMapText">
	<text transform="matrix(1 0 0 1 483.29 441.14)" class="st9 st10">Polonuevo</text>
</g>
<g id="sabanagrandeMapText">
	<text transform="matrix(1 0 0 1 603.9399 386.56)" class="st9 st10">Sabanagrande</text>
</g>
<g id="barranquillaMapText">
	<text transform="matrix(1 0 0 1 499.8201 191.6)" class="st9 st10">BARRANQUILL </text>
	<text transform="matrix(1 0 0 1 626.86 191.6)" class="st9 st10 st11">A</text>
</g>
<g id="soledadMapText">
	<text transform="matrix(1 0 0 1 584.6599 260.95)" class="st9 st10">Soledad</text>
</g>
<g id="usiacuriMapText">
	<text transform="matrix(1 0 0 1 349.16 445)" class="st9 st10">Usiacurí</text>
</g>
</svg>
